<mxfile host="app.diagrams.net" agent="Mozilla/5.0 (Windows NT 10.0; Win64; x64) AppleWebKit/537.36 (KHTML, like Gecko) Chrome/129.0.0.0 Safari/537.36" version="24.7.17">
  <diagram name="PÃ¡gina-1" id="8vQn6FmnuGwBmXo1pLnc">
    <mxGraphModel dx="1665" dy="2093" grid="1" gridSize="10" guides="1" tooltips="1" connect="1" arrows="1" fold="1" page="1" pageScale="1" pageWidth="827" pageHeight="1169" math="0" shadow="0">
      <root>
        <mxCell id="0" />
        <mxCell id="1" parent="0" />
        <mxCell id="EbRBRvWTeYwodcwLKBip-14" value="" style="shape=image;verticalLabelPosition=bottom;labelBackgroundColor=default;verticalAlign=top;aspect=fixed;imageAspect=0;image=data:image/png,iVBORw0KGgoAAAANSUhEUgAAAOcAAABuCAYAAADcSwQwAAAAAXNSR0IArs4c6QAAAARnQU1BAACxjwv8YQUAAAAJcEhZcwAADsMAAA7DAcdvqGQAACFlSURBVHhe7Z0HWBTXFscPTUUFe6+AYgPsLc8SNcZoLM8WFUQ0ajT2bhJ9MRoTY0HFnqgoKiqoSTS2aKIRS6zYe++oCHal6bv/wwzsrsvuAosseH/fNx/szOzsnbn33HPumbn/sapavc4bkkgkFoe18lcikVgYVh5VakrPKZFYINJzSiQWijROicRCkcapUL5cOVrwy3zq2aunskYiSV+kcQqsra2pbbu2dPXKVVriv0RZK5GkLzIhJJFYKBbrOQsUKEB+fjNp4KCByhrLp2nTj2jBz/OpQsUKVKJECZo1248+bfmpsjV98HB35zI1btxYWWMehg0bSj/8OFH5JEkLjBpn8eLF6LvvvqNVq1fSul/X8t9Ro0dRwUIFlT0yPv9t24aCgldzg0sNFStVooiISDp/7ryyJv2p6OZG0dExdOr0KWVN6kHHWdqpNJ09c1ZZI0kLDBqnQ04HGjp8GDk45qTx48ZT+3YdaPas2cJgi9NwsT5XLkdlT/Pz4MEDGjx4CP9eWuPu5k4vX74g1/Ku5OzirKxNHmiwLi4udOH8eXr9+rWyNv1xd69Ed+7cpvv37itrUo+78Mb22eylcaYxBo3TuYyzMNCctG7dr3RONDqwb9+/NHPmzExTMQj7SpUqSX//vZOsraypVq3aypbkEd9gs9HJEyeVNekPwuv8+fPTyZNve82vvh5NPt19lE/Jw93DnR49ekRHjx1T1kjSAlvlr17exL0mW1s79pSaXLl8hRcVhLh9vviCKrlVIhsbG3oY8ZBWBa6mXbt28fbJUyfTzes3yM3DjfLny08HDxyk02fOUJs2rWnOrDl04mR8g4annjBxPJ07e45+/vkXmjZtKp08dYoClgbw9oYNG1IXr86UL28+evPmjfBSF2jBggV069Zt3t64SWPq3LkT5c2bl2JjYyn0yFFxnAX0+PET3q6PatWr0WtxrL1791LpUqXIQzS84KCgBO+HTG6v3j3FbzegbMJbPH36hDZu3Exr16zl7Squ5Vz1Ntgywpv6L/EnR0cHiop6Ja5JCC1auDjh+MbKjGt3P+welStfjvd59uwpBQev5eEGypQlS1a6ceMGzZ07T6tOQMUKFSkmJoZOHD+hrEk9qKPSpUvR8WPH+Rwwth4+Yhhdv36dKlf2oJxie/jDcFoWsJzq/aeeuL5VyUZcw9Onz9KMGdMTzgvn/VmnjlyXojLpxs2bWuegW/eVq1SmQYMG0a+//kqbNm7idZkdg57z1OnTbCjt2rXlwf9HHzV5K5RF4x00aCDlzpObvhr9FXl39aGjooF5e3uRmwipgI3wSHU/qEO7Q3ZTV69u9MvCRXTo0CF69SqKPESFqrhXdqecOXKKnv5t71O7Tm3q5tONzopK7tWzF3079luyz25Pfb/sy2WoV68++fj40JHDR/g3pk3zFZ7fifr168fb9YGG5i5+H+eIRhF69CgVLlyY6ojfUmnQoD7VqFGDli8LpI4dPqPt2/+iDz9sSK6uZZU94o9TThjnpUuXtEJaO7ssolFVoTXBwVymzZu3iOM1oE7CGIEpZca186hcmdauXcf7nD93gXoIj+da1pXGfDNWLGMou3128vL05P01QWd4Txj2TdHwzYVaRxcuXFDWkOi0snHnMWfOPFH2/myAQ4YMpqxZs4i2MZj8/OaIMWpJ0Ql15v0xBGjRvLkw8BNcl0OHDhMGSnrP4X3GoHGioU2ZMoV8p02n6Oho6t6jOy1atJANFb0nQEMuVLAQh77Xrl0XBveSVgauosdPn5KbW6LhHTkcSoErVvL2R5GRPAa6dvUqJ1HUhujh4cHeZ//+A/xZk0aNPqR79+7R7NlzuPIRZi9atFj0pL9xORs1aki3b9+mhcLw8RuHDx2mdWvWiXGgM1UVBqKPOnVri547b0JngA7jxcvnbAwqOURYHxcbR9eEZ8Dv4BwG9B8oGudFZY+kO5W4uFju5bds2cplwndDj4RSndq12aBNLXOIiEC2/bmN9/lz2zZ6GBlBK1et4uuNchw+fFh0mrmUveMpU7YsFREdzclTiWVCGIukHpaaNWtS69at+P/VQas4q4wF/6v7YIEH0wR19ER475MnEkNlJJw2/bGZy4963ROyh+7fv0/Lli2P/7xnN128cIny5M3D+yOfMGLESJo/bz7XJSIfRE8IwXFdJPEYNE4VNNrx300QPbe3CE1mkoODI40dO4afqskjGreDCNmQIFIrdOmyJRwioudUeRgRofyXyDERGuUVFeYmDBSVUlZ4o+PH48MlXRAOwzg1t2Hci8YO0Dgv63iuq6LxouEULlpEWaMNxomPHz2m/f/GdwZoSGhE8PhqNhrn/uzZM/r227HcUD29urwVPbi7udGz58+0GixAWV6JUFaT6yK8t7G14UjD1DLHxsUp/8Hgxf/Cy/BfBc3tKm5uFfnvqVNn+C9AiIikHhac14YNf/D/nTt14U4EC/5X98ECI1JR6+ii6BCeCgNN5I0YGiSeA/7HOWmeV9xr7TKicx/91SgKCFhKa9YEcUeRNVtWvi6SeEwyTk2QEFr0y0Iep7mULcPrIh5G0OjRX2tVKhZ1vJAUhw4eoucvXnC6H97HPms2s46PDIGsbIUKFah4ieLcmagdC8LYAvkL0Acf1OX9YLCjRbg+y2823bx1S4T2TclXjJ3UkB0N1lWEdOfF+Fe7waYvyEDfDQujSxcTPXxqcRdhsqM43xMnUldHGKeOHDWSx9CLFi2iXr16c0ch0cagcbZt25bGCA+p6yns7Ow4FEW4F3bnLmWzt0/oqVVy58mT5FhPBY35wrnz/F2ES5GPIhOSQ7o8fvyYihcrpnVMJAnatvsvr8N2lzJltLY7id45SxY7LqMuyMpa29gk3CJSF4wrbwjvhsYNcDxH4eH2799PfjP9RAQxnqLFWLlChfjzxdgzR47sehssvptNdDiaIDOM6/Yo8lGyy2wqaPyFCheiUzqePLW4urrGRwjH9deRqSDPkEWMx5E02r17D4e2tqIudNFch0SjlZWV8un9wKD13Ll7h8qWdaGvvv6aQ1iAvx0+60gvXryk0KOhnJ28du0qfdL8E/Y2yGh28exCM2f6Ups2bfg7hsA4DRk73NJApjIpdu7cJULNQtR/QH/+DZSjWzdvql2rFuXInoO3FxPG27t3L95eo2YNat+xPV2+fOWtDCqMAVnZsLC7b3UGCMUQWpd2cuIyIRk2fbovNRfnh+8h+4jO6IEYUwHcVoiOiuFQTxcbG1sex+G7KJNXV0/ODu8/cIA7puSUOTmg8aMDPXM2MaTV5adJk41GNprg3CuJ4QfGuamNEF6KtpMlSxYqJ+oQx+3U6TNOlGmCjqtqtaoc/mLx8vIke3vtji6zY9A4D+w/QDOm+4kLaEUTJk7gsG/c+HGiMUbTdF9fDvnQmOFRrly6SoMGD6LAlcvp009b0I4d/9D69euVIyUNkj8Y06ExHT2WtHEiqRAQECDGiW60InAZfS/K8/LlS5ozZy43Fmz3X+xP1WtU5+0jRgznMs2bN09r7AOQxCpatDCPu/RxJDRUjKLecCPHbZMDwmt6dfWiNWuDqX379vTPP/9QSMhubliuooFdvnyZkxy6xMRE05Ejh8V32nGZWrRoLr4XQkGrg3h7csqcHMoJDxceHm7We9GcF3B0MMt9XFy/vfv2UvsObfnJrDp169CevXv4VpJK4MqVFBUVRVPFOB8JSNyqefAgXNn6fpDhHnxHyDZg0ABaG7w2SeN6V8Cz9hvYjzOsuMViCSCRNXbsWDoovPOKFYHK2tTTVXROtWrXpokTJ3KnLEl7DHpOSwQhTrGiRcmnezc21PSEn1sVIe3xVCZIzIlbJTces5o7sYanjXDrSxrmuyPDec4cOXKQo4Oj8J79KTh4DT+pIpFkRjKc52zVujXNmuPH9whxC0ciyazIydYSiYWS4TynRPK+II1TIrFQpHFKJBaKNE6JxEKRximRWCjSOFMB5kfqzndMD9JCCS+tVPskpmPUONH41OlU6oJnTGfNnsUPcWckME1szrzZtDTAn1Ud+vT5gicdZ2TSSgkvLVT7JMnDJM+JZ1g1p1VBWuJeWBj17t073R+hSw7OTk508fxF1uDx9vbmziU6JlrZmjFJKyW8tFDtkySPFIW1mH+3ZetWnvaDaUQZhb/++pv8/GbR5k2bycenO/X5om+Gf/wvKSU8zHVF1JOSztOQap/k3WFQfS85YNJxz56fk7NzvO7rrdu3aemSAJ4bqdKhYwdq0aIFK9FBFe5o6LEEpTljCn4Y32EchAnZbiLkwj63bt3S+g1MCu/Tpy9VrVaFp6A9efKUNm9OVMrDfEnMC8SkbbKyovDwh7Rw4cIEqRNMAesoyti8xScsxQLNHl21PF2sbax5Gl2lihV5MrBumXBe3bt3p2rVqpKtrS1FRESwlpB6Xpjv+XHTpnTvwX0+P1WpbsuWzdS5S2dWPoyOjqKtW7bR8uXL+TsqUGHARABVCc9c6Kr24dpjyliUKAemo8WJ38I0uqNHj5GnuJ6qKmDQ6mDWSwLqeVetWoU7cUzv+3Nr4jngvJs1+5imTpmWIEAGuU7I0WhKo7zPpMhz4sK3/PRT0WiiRUM6zZ8HDBxIz5+/oP4DBrLsRPiDcH5jF7aBVq1bUUtRITt37GQVOYhFO7s4UY/PP2ejMKbgB0qWjPcCI4aPoJGiAtEg1d/AMaDEh2Pi2PgN/FbLli14fAnQIBCmQe0NoTkMCfM0VVEpTKxu2aol/bFhEysiBAQs5wnkkMZMihLCeOJiY2mYOKbeMvXtQ06lS/NUK5QJ3qh7j25Up04d5QjiehYuRLbWNlpKdXgNBYS7cC3QQeAcVOkUFX1KeOZAn2ofOoF74tp5e3enoKAg0dHVFOfho6UKiJdBqaLckDEtUqQw1wWu5e+//06NGjd66xwkSWOScSJpopkQmjt3DuUvUIBn0qMCccExTWnlqtXc+OEJg4LXiMZpxVOY0Egb1K/PPTF6TngkaBH98stC+vPPP01W8Ltz5y75zZjFam3YL0B4qOzZ7al+vfqsVle2TBlaJxoLjo1jBAYG0rJlKxLmfUKSZNKkn/j7KOMxEQpCt6iQaEQw0Lr/+UB486OiHOvYyKB499f2v6lK5SpJhoeGyoTzKlmqFGutnjp5mss0d85cunv3Hn3YqKFyBBId2QPRESzja6cq1WEMqaoVwuM8efqExdQ00VXCQxmRYUUdffvt/8jJ2Ylm+s3gz2pWWTfBpyrvqehT7QOsKyvKjvKs/30DhYWF0e6QPVqqgBD2cnCI7+jWiPofOmQY1wWu5YH9B+nFi+fCYIvydolxkp0QGvP1GA7NTonKg64OyJUrN2cNJ0+elFDp+B/jFmjLQooDU73u3A3j/VUQTqIRmqrgh1BLUyLj6tVr9PzZc8rpkJPV6hBuIZxWQaPY8fcONkQAb9a/fz9a7L+YgtcE0eef9+DfhQYQvLadrR1dvHiJ91W5cvUq2drZUt582oahYqhMOK+XL15oyWiiTBCBRvimAoFsrFeBUp2mWh22YR9N9CnhoaPs2+dLrqcJE77nVxoOGTyUP6uhIv6qdYlFVd5T0afaB968Tiwjl0d81qcKqIIOGYp6s+fMEp12IHcSRYoU4esiMY1kh7XQi4ViO2bFa4act27eou7dehiseEOkVMHPVNCYhw0dwskO9Or9+w0gf/8lfLsgI2IuJTxdzKXaB32ndu3b0TExLoUAODoJfVIukqRJ0Zhz27btFCMadf368aJM0KtxcHTkBqMJvCmAcPLz58/FuKUkf1Zp0LABfdzsY5MV/JDkUceHwMmpNOXImYOePX1GkcKbQ2FdTUipdOnSmZNVeO8LQvH1v6+nrVu3ckPBu1FURTeo4cXExlBZRe5TBbdfYmNik5w7aqxM9tmza6nD43xKlizJryxIDeZSwtMEYbG5VPuQtMMwZvFif7p0+XJ8PeqI5+Haa9avjRh3SxJJkXEifDp37hxVq1qVEwB7du8WoeMjat+hPaviIWv6Zb8vafKUyYRXDiAMChH7lC9fnhXoUCEYp3p6duHxnKkKfkWLFaUhQwfze0KQoPDp4cMqgLvFOA1CYThGq9YtOSuLY+BeZrNPmlEZMRZF8goZWhgvfh/v6mjTphXZ2sY3CISG/+7dx4pvEPHCPug4PmrahI4dP6aVHNGkqAinBw8dlGSZbly/Tu3ateMoA2WCemCRIoXon53x2dqUgLIZU8JDBhchbFLl1ocpqn2mgsxu0aJFeSiB69Knb5/496IooONyECFuo8YfJigTVqxUQdkqASkyToBxKFLkkJjEmM53mi+ny6GKhzEdkki//fobJzjAHxv+oI0ixG3S5CMe7yEbiRcRzZo1m43XFAW/O7fv8N9pvtNYlQ2NdPGixZxIwTEWLPiZrly+yip2OEaTjxrxb+IdJRjbbt2yld/Zgt/Hy4N2heymV68SFdmReVy/foMw8E/5KSgfH+94Ee2Fi5U93ubGjfjGn1SZcF4Yh0J0Cwp7UA9cumRZwng9JZhTCU8Tc6r2BQetYWV7JA/xaCHG2Wr9AVzXv//ayS8cXr4igN9Hc/DgYWWrBGQYJQTca8NrD0y5B9Zd7AuN2ymTpyhrMhdpoYQHD5cWqn2SlJNiz2nJlC7tJHri6mzQmZG0UMJLK9U+ScrJlJ4TiaiGHzbksc60qb7KWokkY5HpBL6KFC5C34z9mgqJsHbTps1muxUjkbxrpPqeRGKhZMoxp0SSGZDGKZFYKNI4JRILRRqnRGKhSOOUSCyUTGWcmKtoCQ8epIUaHh5zw1xNPIAgeT8wapz61PcwQXfUqFH8gLtEmzRTw6tUiSIiIun8ufPKGklmxyTPqau+N8tvFsuBQK9Hok1aqOHB4F1cXOjC+fP8ML3k/SBFYS1mFOz/dz8baKlSpZS1EpAWanjxBp/N7LNQJJZNitX3HoSH8+RmyHu8fPXSoNIa5jpCfAtTkjCnUlOhztA20KJFcxbewsRrXcU+feTNm4fmL5hP+fPnY+mM0CNHtfbH7IuMpobnWs5Vy+AnT51M98PuUbny5RKU76DFi2vZsGEDUQdZeYrW3Lnz6MrlK/wd9byTqiN9zy6jM8Gk8J8mTVbWSN4lKU4IFcifXxhLNCsIGFNaa9uuHWXPnp1GjhxF/fsPYFWBNv9tbXQbFOc+69SRdv7zD33WsRP98MMPrDQAxb6kqF69Ou3ds5dV6yBDUqlSxYT9Mdcyo6nhweDLCeO8dOlSgsHbWFmTR+XKWsp3PYRxuZZ1pTHfjBXLGMpun528PD15fyDV8DIeKTJOVGidunV4YvP169eNKq1BQOvpk2c8MRnTnL7/fiJNGP+90W1169alq9eus2fDcaFgB2FoeCdVAkWXPcIwV6xYwYpwUIbbvn07VaxYgVXlLE0NT3O7uixfsYxDYBXV4E+e1A5pQ4Sn11S+exgZQStXrWJ1BAiKoSPBq/lVpBpexsMk49SVxoRaAQwT4SKARzKktPbvvv1UqnQJ8l+ymAWY0YvjO8a2oXEhtNT8bU+vLpRNjL+w6APhmiZQzwPoBCxNDU9zu7p4d+2mpUKPUJO1gnR0ffQp3/FfBc3twFgdSSwPk4xTN1sLVb0pU6YkjOOMKa1hPDd40BBau2ad+EGIP/eh8RO+4wZjaBvYvv0vrd/GggadHG2cd0FaqOHB4F3FuPL8+QtJagWZilTDy3iYZJzGMKa0Bs3a2Ng42rhxI40bN44FowsULCDGSGUNbkMyAt5IU90OYlCG7q/a29sr/8UD9TwANfqMpoaHcsLjm8PgTVLDs05Uw8NffJakH2YxTmNKayNHjqQJ349nZT4Yl5tbJYp6GUUPhbEY2rZn9z4ONz/v2YMNEvuM++5b+va7cZy91Ue9ev+hrl278rGgnte0aVM6I8aL0GHNaGp4uC0THRXDoXJqMVZHUE/Mn78AKyCq1wWZaUn6YRbjNKa0tnTpEh4LTpg4gZXWkJRZtWo1h1WGtiEZ4y96erzcCIp+UPaDzs3P8xfQo8hI5eiJYBx4+PARqlW7Fh8Liu6nT5+hJf7+vB1jxYyihgeDdxWd0WXh5cwRfhqrow3r/xAhbyiHv8uXL6VCwojxHhxJ+iGVEMxAWqjhIRHWb2A/WifG4hh3S94/zOI533fSQg2P3ywtQtrjZn7dgiTjID2nRGKhSM8pkVgo0jglEgtFGqdEYqFI45RILBRpnBKJhSKNUyKxUKRxSiQWyntpnFKlT5IRMNk4MTPEd4YvLQ3w50fLdCnj4sJzBCErIjGOVOmTGMNk48R8xTy585C1tQ3V1SNtkcMhJzk4OJKVMuVIYhip0icxhsmWBI2dyEeRdODAAZ7KlJRMiMQ0pEqfxBgmPVuLhvLNmG/o2NGjrGXzea+eFLRqdcJsia++Hs1SJppAPQGqbTVq1iAvL08qXqyY+DUrCg9/SAsXLqTQI6G8H6ZGdfXuSh9/3JQgPYKpYKFHj/FEY99p03n+IxrryVOnEl6EiwY8aNAg1gLatHETr0uOSh+Od/vObfEb5dJNpW/CxPE8x3Opzst9cW7eXbuSn9+sZKs9QMXQxdmZRo/+ij0nxtWYzoa5nFA3jBPrDuzfT0fF9fUUdaIq9wWtDhbl3srHkCp9loNJnrN6jWpkZ2tD/0Kvdv8BinwYoaVWh0qBRs6jR49Z8Q5SImpFoRFjtsbQocOoV89eLH3p1dUrQd2gU+dObJhbtmxhhb2VwuirVa/GhmoqUqVPv0ofwMTqe+L6e3t3p6CgINFZ1hTn4aOl3NdWdGrOLs68v1TpsxyMGicaaq1aten+g3A6dfo0Vzw0ZUuULMGKdsYYP248TZr0kzDK2+yVjokwzj5rNiokGgAaFDwrvKiqsLfj7x20/rf1wuvEKEcwjlTpSzR4XZW+G8L7ouwoz/rfN1BYWBjtDtmjpdz3+s1rcnCI7yylSp/lYNQ4ERYVLFiAjhw+ktAjHwkNJWsbG6pTuxZ/NgTCpP79+7GSQfCaIFYngGoAtHEgSJ1VhE7Xr99Q9o4HjYXl5ExEqvQJ40xCpe/N68QycnnEZ33KfSrojKVKn2Vg1DiRmc2dOzc3drXhT5z4PeUR66qK8FMNT/WBbcOGDuF7buiR+/cbwCFkcryiqUiVPqnSl9kwaJwICZFV3Ld331sNH0aGWytobEnhXMaZ8otjrP99PW3dupUr2drKmqys4lXdoBYfFR1NpUqV5M8q2Id0pOFshadWsRH/q8cAUqVPqvRlRgwaZxUxpsmZM4cYJyaGTyrIxr54+TwhQYJGHRcXS/ny5WPDgFJetDA8ZGidnZ25Ehs3aUxt2rQiW9t4Q0Mvf/jQYU4AeXX1TNynbRsW8lJ5/PgxVa1WlceQWJD9tbdPDFelSp9U6cuMGDROGN7DiEg6dPCQsiYRJEGQAIF3REWiUSObi1saUG9r0rQJJ0e2btkqQuM6PN7s3LkT7QrZTa9evVKOQhS0Ooi2bdtOzZs3531gMKdPnYo3bIXAlSspKiqKpk6byo+74RUQDx4kejCp0idV+jIjFqkhhNsvzYQ3mzplmsWNGVODVOmTJAeDnlNiXqRKnyQ5SM8pkVgoUhpTIrFQZFgrkVgo0jglEgtFGqdEYqFI45RILBRpnBKJhSKNUyKxUMxinJhvOGu2H9+fTA/S+/dV8Cjdj5N+pMFDBitrzENaqPRJLB+jxonJvprzJLEErlxOX/TpzY1Rkki58uUob948dMaMz5qmlUqfxPIxybowA0WdKubl6c26OPXr16fWbVope0hA5cpV6HXcazpnRlnKtFDpk2QMku36IG0RGBhI9+/fp/LlyytrJcDdvRLduHnjrUcOEW7/8OMPyqfkkZRKnyTzY6v8TREvXyZO/dIF8zIxRQwKb7GxsW+p22HeZZ8+falqtSpkZ2dHT548pc2bN9PaNWt5O+YS9v6iN7lCp8jKioXBli4JYP2ipICwtf8Sf3J0dKCoqFcssLVo4eIEmQ5jx0yJWp0KtIcw+RzaO+YCk8dRZszxVM9h8tTJdD/snhJCx5cnOHgtFS9ejBo2bEBZsmTlaV5z586jK5ev8HeMKSCaom4oefck23Nigq2XlxflzJkzybmN9erVJx8fH9YdgsLbtGm+5FzGifr168fjVCyQcXR2cWKVN+yzc8dOatmyBavVwXCRVLHLkoVV+/r3H0CREZH0ZT98J14lThc7uyyiUVWhNcHBfLzNm7dQgwYNWN0PmHpMGENy1OpUKnt4sDrD2bPmCz/1qfTZWFmTR+XKWuXpIToV17KuNOabsWIZQ9nts4vhh6fyDeMKiBLLxCTjhCatZjIIY02IXx0/pn+aUqNGDen27duid17EYTDUDjDf0EU06KrCgLCULVOG1okGBk+jhsrLlq3g8S2kGB2E8a8IWM6qfWhYC37+mT1wAzHW1QdUGNDLw6Px8VasZM9Qp3ZtboSmHjO5anUqbh5udOfOnQRvBe8DhTxcM0zmLi88nXoNofMLg1kdtCphHRZ4ME10VfpUQnbt0irPw8gIWrlqFSssoF4gzQnRMxVDCogSyyXZCSEs/xvzPypatAiN/d83ejO2aBiXdfRTIV0JYa/C4ntYEDLeEgasgn0hi4nGkytXbnr85AlLcarAmB6Eh1PhJBoUvv9KhLKaQNUPs/qh8mfqMZOrVgfgRQsXLMQyJyoIRaGQh+sFvSUkidTrB01fdCSdO3VJWIdFU6gZHYquSp+KvvLwXwXN7cCQAqLEckl2WAvOnT/PWjoFCxbksc/7joeHO4tcmXPCs7lU+mDk70oBUWJeUmScKtCutbN5O6cEQS4XEbZqelUnMZaDrk/Ynbu82NjasvCXJl26dGYlOYhI5XJ05OSMCnr/AvnzU9jdMGWNNvitbCJU0wSqfnGxcazyl5Jjmgqy1ndF+AsdJXNhLpU+YwqIKobUDSXpQ4qME+p2UD6HEUIEC8A4cuTIwf/vFF61WLFi1Lt3L04gIVvYvmN7uizGY7glgOXihQvUqlVL3oZ9vL29qdknzaiMMGokh54+e0Zdfbw5Cwkj6tunD7+zJGT3bv4NXWxEJ4FxXHNFFQ5qflD123/gAIeFKTmmKeDppJIlSnJiJikQwiJRYyq4lsZU+kzFmAIiMKZuKEkfTDJOzYQQlgkTJ1CMqHSo26HxIPlz4/pN6tixAyc7VDW86jWqs3LdiBHD6cqlqzRv3jwex2FZIL575fJVGj58GO+DhM26tb9ylhXjTt9pvhQdFUUzZkxnJbg8efPQ/Hn4TnzCRZeYmGg6cuQwtW/fjo8HFcCQkBBW9wMpOaYpINFjbWNNx4+b7z6kOVX6TFFANKZuKEkfpExJKsFzrwgbx44Zm5BISi1podInyXikasz5vqM+94pnac1lmCAtVPokGQ2i/wPVPfN0gJVUrQAAAABJRU5ErkJggg==;" parent="1" vertex="1">
          <mxGeometry x="520" y="150" width="231" height="110" as="geometry" />
        </mxCell>
        <mxCell id="EbRBRvWTeYwodcwLKBip-15" value="codigo dos jogos" style="shape=table;startSize=30;container=1;collapsible=1;childLayout=tableLayout;fixedRows=1;rowLines=0;fontStyle=1;align=center;resizeLast=1;html=1;" parent="1" vertex="1">
          <mxGeometry x="290" y="-30" width="180" height="150" as="geometry">
            <mxRectangle x="220" y="60" width="130" height="30" as="alternateBounds" />
          </mxGeometry>
        </mxCell>
        <mxCell id="EbRBRvWTeYwodcwLKBip-16" value="" style="shape=tableRow;horizontal=0;startSize=0;swimlaneHead=0;swimlaneBody=0;fillColor=none;collapsible=0;dropTarget=0;points=[[0,0.5],[1,0.5]];portConstraint=eastwest;top=0;left=0;right=0;bottom=1;" parent="EbRBRvWTeYwodcwLKBip-15" vertex="1">
          <mxGeometry y="30" width="180" height="30" as="geometry" />
        </mxCell>
        <mxCell id="EbRBRvWTeYwodcwLKBip-17" value="ID" style="shape=partialRectangle;connectable=0;fillColor=none;top=0;left=0;bottom=0;right=0;fontStyle=1;overflow=hidden;whiteSpace=wrap;html=1;" parent="EbRBRvWTeYwodcwLKBip-16" vertex="1">
          <mxGeometry width="30" height="30" as="geometry">
            <mxRectangle width="30" height="30" as="alternateBounds" />
          </mxGeometry>
        </mxCell>
        <mxCell id="EbRBRvWTeYwodcwLKBip-18" value="id_codigos" style="shape=partialRectangle;connectable=0;fillColor=none;top=0;left=0;bottom=0;right=0;align=left;spacingLeft=6;fontStyle=5;overflow=hidden;whiteSpace=wrap;html=1;" parent="EbRBRvWTeYwodcwLKBip-16" vertex="1">
          <mxGeometry x="30" width="150" height="30" as="geometry">
            <mxRectangle width="150" height="30" as="alternateBounds" />
          </mxGeometry>
        </mxCell>
        <mxCell id="EbRBRvWTeYwodcwLKBip-19" value="" style="shape=tableRow;horizontal=0;startSize=0;swimlaneHead=0;swimlaneBody=0;fillColor=none;collapsible=0;dropTarget=0;points=[[0,0.5],[1,0.5]];portConstraint=eastwest;top=0;left=0;right=0;bottom=0;" parent="EbRBRvWTeYwodcwLKBip-15" vertex="1">
          <mxGeometry y="60" width="180" height="30" as="geometry" />
        </mxCell>
        <mxCell id="EbRBRvWTeYwodcwLKBip-20" value="" style="shape=partialRectangle;connectable=0;fillColor=none;top=0;left=0;bottom=0;right=0;editable=1;overflow=hidden;whiteSpace=wrap;html=1;" parent="EbRBRvWTeYwodcwLKBip-19" vertex="1">
          <mxGeometry width="30" height="30" as="geometry">
            <mxRectangle width="30" height="30" as="alternateBounds" />
          </mxGeometry>
        </mxCell>
        <mxCell id="EbRBRvWTeYwodcwLKBip-21" value="data" style="shape=partialRectangle;connectable=0;fillColor=none;top=0;left=0;bottom=0;right=0;align=left;spacingLeft=6;overflow=hidden;whiteSpace=wrap;html=1;" parent="EbRBRvWTeYwodcwLKBip-19" vertex="1">
          <mxGeometry x="30" width="150" height="30" as="geometry">
            <mxRectangle width="150" height="30" as="alternateBounds" />
          </mxGeometry>
        </mxCell>
        <mxCell id="EbRBRvWTeYwodcwLKBip-22" value="" style="shape=tableRow;horizontal=0;startSize=0;swimlaneHead=0;swimlaneBody=0;fillColor=none;collapsible=0;dropTarget=0;points=[[0,0.5],[1,0.5]];portConstraint=eastwest;top=0;left=0;right=0;bottom=0;" parent="EbRBRvWTeYwodcwLKBip-15" vertex="1">
          <mxGeometry y="90" width="180" height="30" as="geometry" />
        </mxCell>
        <mxCell id="EbRBRvWTeYwodcwLKBip-23" value="id" style="shape=partialRectangle;connectable=0;fillColor=none;top=0;left=0;bottom=0;right=0;editable=1;overflow=hidden;whiteSpace=wrap;html=1;" parent="EbRBRvWTeYwodcwLKBip-22" vertex="1">
          <mxGeometry width="30" height="30" as="geometry">
            <mxRectangle width="30" height="30" as="alternateBounds" />
          </mxGeometry>
        </mxCell>
        <mxCell id="EbRBRvWTeYwodcwLKBip-24" value="id_jogador" style="shape=partialRectangle;connectable=0;fillColor=none;top=0;left=0;bottom=0;right=0;align=left;spacingLeft=6;overflow=hidden;whiteSpace=wrap;html=1;" parent="EbRBRvWTeYwodcwLKBip-22" vertex="1">
          <mxGeometry x="30" width="150" height="30" as="geometry">
            <mxRectangle width="150" height="30" as="alternateBounds" />
          </mxGeometry>
        </mxCell>
        <mxCell id="EbRBRvWTeYwodcwLKBip-25" value="" style="shape=tableRow;horizontal=0;startSize=0;swimlaneHead=0;swimlaneBody=0;fillColor=none;collapsible=0;dropTarget=0;points=[[0,0.5],[1,0.5]];portConstraint=eastwest;top=0;left=0;right=0;bottom=0;" parent="EbRBRvWTeYwodcwLKBip-15" vertex="1">
          <mxGeometry y="120" width="180" height="30" as="geometry" />
        </mxCell>
        <mxCell id="EbRBRvWTeYwodcwLKBip-26" value="id" style="shape=partialRectangle;connectable=0;fillColor=none;top=0;left=0;bottom=0;right=0;editable=1;overflow=hidden;whiteSpace=wrap;html=1;" parent="EbRBRvWTeYwodcwLKBip-25" vertex="1">
          <mxGeometry width="30" height="30" as="geometry">
            <mxRectangle width="30" height="30" as="alternateBounds" />
          </mxGeometry>
        </mxCell>
        <mxCell id="EbRBRvWTeYwodcwLKBip-27" value="&lt;span style=&quot;font-weight: 700; text-decoration-line: underline;&quot;&gt;id_estatistica_final&lt;/span&gt;" style="shape=partialRectangle;connectable=0;fillColor=none;top=0;left=0;bottom=0;right=0;align=left;spacingLeft=6;overflow=hidden;whiteSpace=wrap;html=1;" parent="EbRBRvWTeYwodcwLKBip-25" vertex="1">
          <mxGeometry x="30" width="150" height="30" as="geometry">
            <mxRectangle width="150" height="30" as="alternateBounds" />
          </mxGeometry>
        </mxCell>
        <mxCell id="EbRBRvWTeYwodcwLKBip-62" value="estatistica_temp" style="shape=table;startSize=30;container=1;collapsible=1;childLayout=tableLayout;fixedRows=1;rowLines=0;fontStyle=1;align=center;resizeLast=1;html=1;" parent="1" vertex="1">
          <mxGeometry x="-420" y="70" width="180" height="780" as="geometry" />
        </mxCell>
        <mxCell id="EbRBRvWTeYwodcwLKBip-63" value="" style="shape=tableRow;horizontal=0;startSize=0;swimlaneHead=0;swimlaneBody=0;fillColor=none;collapsible=0;dropTarget=0;points=[[0,0.5],[1,0.5]];portConstraint=eastwest;top=0;left=0;right=0;bottom=1;" parent="EbRBRvWTeYwodcwLKBip-62" vertex="1">
          <mxGeometry y="30" width="180" height="30" as="geometry" />
        </mxCell>
        <mxCell id="EbRBRvWTeYwodcwLKBip-64" value="ID" style="shape=partialRectangle;connectable=0;fillColor=none;top=0;left=0;bottom=0;right=0;fontStyle=1;overflow=hidden;whiteSpace=wrap;html=1;" parent="EbRBRvWTeYwodcwLKBip-63" vertex="1">
          <mxGeometry width="30" height="30" as="geometry">
            <mxRectangle width="30" height="30" as="alternateBounds" />
          </mxGeometry>
        </mxCell>
        <mxCell id="EbRBRvWTeYwodcwLKBip-65" value="id_estatistica_temp" style="shape=partialRectangle;connectable=0;fillColor=none;top=0;left=0;bottom=0;right=0;align=left;spacingLeft=6;fontStyle=5;overflow=hidden;whiteSpace=wrap;html=1;" parent="EbRBRvWTeYwodcwLKBip-63" vertex="1">
          <mxGeometry x="30" width="150" height="30" as="geometry">
            <mxRectangle width="150" height="30" as="alternateBounds" />
          </mxGeometry>
        </mxCell>
        <mxCell id="EbRBRvWTeYwodcwLKBip-309" value="" style="shape=tableRow;horizontal=0;startSize=0;swimlaneHead=0;swimlaneBody=0;fillColor=none;collapsible=0;dropTarget=0;points=[[0,0.5],[1,0.5]];portConstraint=eastwest;top=0;left=0;right=0;bottom=0;" parent="EbRBRvWTeYwodcwLKBip-62" vertex="1">
          <mxGeometry y="60" width="180" height="30" as="geometry" />
        </mxCell>
        <mxCell id="EbRBRvWTeYwodcwLKBip-310" value="" style="shape=partialRectangle;connectable=0;fillColor=none;top=0;left=0;bottom=0;right=0;editable=1;overflow=hidden;whiteSpace=wrap;html=1;" parent="EbRBRvWTeYwodcwLKBip-309" vertex="1">
          <mxGeometry width="30" height="30" as="geometry">
            <mxRectangle width="30" height="30" as="alternateBounds" />
          </mxGeometry>
        </mxCell>
        <mxCell id="EbRBRvWTeYwodcwLKBip-311" value="id_jogador" style="shape=partialRectangle;connectable=0;fillColor=none;top=0;left=0;bottom=0;right=0;align=left;spacingLeft=6;overflow=hidden;whiteSpace=wrap;html=1;" parent="EbRBRvWTeYwodcwLKBip-309" vertex="1">
          <mxGeometry x="30" width="150" height="30" as="geometry">
            <mxRectangle width="150" height="30" as="alternateBounds" />
          </mxGeometry>
        </mxCell>
        <mxCell id="qMHP9Uw10RrY-gQze9GQ-3" value="" style="shape=tableRow;horizontal=0;startSize=0;swimlaneHead=0;swimlaneBody=0;fillColor=none;collapsible=0;dropTarget=0;points=[[0,0.5],[1,0.5]];portConstraint=eastwest;top=0;left=0;right=0;bottom=0;" vertex="1" parent="EbRBRvWTeYwodcwLKBip-62">
          <mxGeometry y="90" width="180" height="30" as="geometry" />
        </mxCell>
        <mxCell id="qMHP9Uw10RrY-gQze9GQ-4" value="" style="shape=partialRectangle;connectable=0;fillColor=none;top=0;left=0;bottom=0;right=0;editable=1;overflow=hidden;whiteSpace=wrap;html=1;" vertex="1" parent="qMHP9Uw10RrY-gQze9GQ-3">
          <mxGeometry width="30" height="30" as="geometry">
            <mxRectangle width="30" height="30" as="alternateBounds" />
          </mxGeometry>
        </mxCell>
        <mxCell id="qMHP9Uw10RrY-gQze9GQ-5" value="data" style="shape=partialRectangle;connectable=0;fillColor=none;top=0;left=0;bottom=0;right=0;align=left;spacingLeft=6;overflow=hidden;whiteSpace=wrap;html=1;" vertex="1" parent="qMHP9Uw10RrY-gQze9GQ-3">
          <mxGeometry x="30" width="150" height="30" as="geometry">
            <mxRectangle width="150" height="30" as="alternateBounds" />
          </mxGeometry>
        </mxCell>
        <mxCell id="EbRBRvWTeYwodcwLKBip-318" value="" style="shape=tableRow;horizontal=0;startSize=0;swimlaneHead=0;swimlaneBody=0;fillColor=none;collapsible=0;dropTarget=0;points=[[0,0.5],[1,0.5]];portConstraint=eastwest;top=0;left=0;right=0;bottom=0;" parent="EbRBRvWTeYwodcwLKBip-62" vertex="1">
          <mxGeometry y="120" width="180" height="30" as="geometry" />
        </mxCell>
        <mxCell id="EbRBRvWTeYwodcwLKBip-319" value="" style="shape=partialRectangle;connectable=0;fillColor=none;top=0;left=0;bottom=0;right=0;editable=1;overflow=hidden;whiteSpace=wrap;html=1;" parent="EbRBRvWTeYwodcwLKBip-318" vertex="1">
          <mxGeometry width="30" height="30" as="geometry">
            <mxRectangle width="30" height="30" as="alternateBounds" />
          </mxGeometry>
        </mxCell>
        <mxCell id="EbRBRvWTeYwodcwLKBip-320" value="Q_passes" style="shape=partialRectangle;connectable=0;fillColor=none;top=0;left=0;bottom=0;right=0;align=left;spacingLeft=6;overflow=hidden;whiteSpace=wrap;html=1;" parent="EbRBRvWTeYwodcwLKBip-318" vertex="1">
          <mxGeometry x="30" width="150" height="30" as="geometry">
            <mxRectangle width="150" height="30" as="alternateBounds" />
          </mxGeometry>
        </mxCell>
        <mxCell id="EbRBRvWTeYwodcwLKBip-81" value="" style="shape=tableRow;horizontal=0;startSize=0;swimlaneHead=0;swimlaneBody=0;fillColor=none;collapsible=0;dropTarget=0;points=[[0,0.5],[1,0.5]];portConstraint=eastwest;top=0;left=0;right=0;bottom=0;" parent="EbRBRvWTeYwodcwLKBip-62" vertex="1">
          <mxGeometry y="150" width="180" height="30" as="geometry" />
        </mxCell>
        <mxCell id="EbRBRvWTeYwodcwLKBip-82" value="" style="shape=partialRectangle;connectable=0;fillColor=none;top=0;left=0;bottom=0;right=0;editable=1;overflow=hidden;whiteSpace=wrap;html=1;" parent="EbRBRvWTeYwodcwLKBip-81" vertex="1">
          <mxGeometry width="30" height="30" as="geometry">
            <mxRectangle width="30" height="30" as="alternateBounds" />
          </mxGeometry>
        </mxCell>
        <mxCell id="EbRBRvWTeYwodcwLKBip-83" value="Q_passes" style="shape=partialRectangle;connectable=0;fillColor=none;top=0;left=0;bottom=0;right=0;align=left;spacingLeft=6;overflow=hidden;whiteSpace=wrap;html=1;" parent="EbRBRvWTeYwodcwLKBip-81" vertex="1">
          <mxGeometry x="30" width="150" height="30" as="geometry">
            <mxRectangle width="150" height="30" as="alternateBounds" />
          </mxGeometry>
        </mxCell>
        <mxCell id="EbRBRvWTeYwodcwLKBip-84" value="" style="shape=tableRow;horizontal=0;startSize=0;swimlaneHead=0;swimlaneBody=0;fillColor=none;collapsible=0;dropTarget=0;points=[[0,0.5],[1,0.5]];portConstraint=eastwest;top=0;left=0;right=0;bottom=0;" parent="EbRBRvWTeYwodcwLKBip-62" vertex="1">
          <mxGeometry y="180" width="180" height="30" as="geometry" />
        </mxCell>
        <mxCell id="EbRBRvWTeYwodcwLKBip-85" value="" style="shape=partialRectangle;connectable=0;fillColor=none;top=0;left=0;bottom=0;right=0;editable=1;overflow=hidden;whiteSpace=wrap;html=1;" parent="EbRBRvWTeYwodcwLKBip-84" vertex="1">
          <mxGeometry width="30" height="30" as="geometry">
            <mxRectangle width="30" height="30" as="alternateBounds" />
          </mxGeometry>
        </mxCell>
        <mxCell id="EbRBRvWTeYwodcwLKBip-86" value="Q_passes_Bons" style="shape=partialRectangle;connectable=0;fillColor=none;top=0;left=0;bottom=0;right=0;align=left;spacingLeft=6;overflow=hidden;whiteSpace=wrap;html=1;" parent="EbRBRvWTeYwodcwLKBip-84" vertex="1">
          <mxGeometry x="30" width="150" height="30" as="geometry">
            <mxRectangle width="150" height="30" as="alternateBounds" />
          </mxGeometry>
        </mxCell>
        <mxCell id="EbRBRvWTeYwodcwLKBip-87" value="" style="shape=tableRow;horizontal=0;startSize=0;swimlaneHead=0;swimlaneBody=0;fillColor=none;collapsible=0;dropTarget=0;points=[[0,0.5],[1,0.5]];portConstraint=eastwest;top=0;left=0;right=0;bottom=0;" parent="EbRBRvWTeYwodcwLKBip-62" vertex="1">
          <mxGeometry y="210" width="180" height="30" as="geometry" />
        </mxCell>
        <mxCell id="EbRBRvWTeYwodcwLKBip-88" value="" style="shape=partialRectangle;connectable=0;fillColor=none;top=0;left=0;bottom=0;right=0;editable=1;overflow=hidden;whiteSpace=wrap;html=1;" parent="EbRBRvWTeYwodcwLKBip-87" vertex="1">
          <mxGeometry width="30" height="30" as="geometry">
            <mxRectangle width="30" height="30" as="alternateBounds" />
          </mxGeometry>
        </mxCell>
        <mxCell id="EbRBRvWTeYwodcwLKBip-89" value="Q_passes_Mn" style="shape=partialRectangle;connectable=0;fillColor=none;top=0;left=0;bottom=0;right=0;align=left;spacingLeft=6;overflow=hidden;whiteSpace=wrap;html=1;" parent="EbRBRvWTeYwodcwLKBip-87" vertex="1">
          <mxGeometry x="30" width="150" height="30" as="geometry">
            <mxRectangle width="150" height="30" as="alternateBounds" />
          </mxGeometry>
        </mxCell>
        <mxCell id="EbRBRvWTeYwodcwLKBip-90" value="" style="shape=tableRow;horizontal=0;startSize=0;swimlaneHead=0;swimlaneBody=0;fillColor=none;collapsible=0;dropTarget=0;points=[[0,0.5],[1,0.5]];portConstraint=eastwest;top=0;left=0;right=0;bottom=0;" parent="EbRBRvWTeYwodcwLKBip-62" vertex="1">
          <mxGeometry y="240" width="180" height="30" as="geometry" />
        </mxCell>
        <mxCell id="EbRBRvWTeYwodcwLKBip-91" value="" style="shape=partialRectangle;connectable=0;fillColor=none;top=0;left=0;bottom=0;right=0;editable=1;overflow=hidden;whiteSpace=wrap;html=1;" parent="EbRBRvWTeYwodcwLKBip-90" vertex="1">
          <mxGeometry width="30" height="30" as="geometry">
            <mxRectangle width="30" height="30" as="alternateBounds" />
          </mxGeometry>
        </mxCell>
        <mxCell id="EbRBRvWTeYwodcwLKBip-92" value="Q_passes_Maus" style="shape=partialRectangle;connectable=0;fillColor=none;top=0;left=0;bottom=0;right=0;align=left;spacingLeft=6;overflow=hidden;whiteSpace=wrap;html=1;" parent="EbRBRvWTeYwodcwLKBip-90" vertex="1">
          <mxGeometry x="30" width="150" height="30" as="geometry">
            <mxRectangle width="150" height="30" as="alternateBounds" />
          </mxGeometry>
        </mxCell>
        <mxCell id="EbRBRvWTeYwodcwLKBip-93" value="" style="shape=tableRow;horizontal=0;startSize=0;swimlaneHead=0;swimlaneBody=0;fillColor=none;collapsible=0;dropTarget=0;points=[[0,0.5],[1,0.5]];portConstraint=eastwest;top=0;left=0;right=0;bottom=0;" parent="EbRBRvWTeYwodcwLKBip-62" vertex="1">
          <mxGeometry y="270" width="180" height="30" as="geometry" />
        </mxCell>
        <mxCell id="EbRBRvWTeYwodcwLKBip-94" value="" style="shape=partialRectangle;connectable=0;fillColor=none;top=0;left=0;bottom=0;right=0;editable=1;overflow=hidden;whiteSpace=wrap;html=1;" parent="EbRBRvWTeYwodcwLKBip-93" vertex="1">
          <mxGeometry width="30" height="30" as="geometry">
            <mxRectangle width="30" height="30" as="alternateBounds" />
          </mxGeometry>
        </mxCell>
        <mxCell id="EbRBRvWTeYwodcwLKBip-95" value="Q_ataques" style="shape=partialRectangle;connectable=0;fillColor=none;top=0;left=0;bottom=0;right=0;align=left;spacingLeft=6;overflow=hidden;whiteSpace=wrap;html=1;" parent="EbRBRvWTeYwodcwLKBip-93" vertex="1">
          <mxGeometry x="30" width="150" height="30" as="geometry">
            <mxRectangle width="150" height="30" as="alternateBounds" />
          </mxGeometry>
        </mxCell>
        <mxCell id="EbRBRvWTeYwodcwLKBip-96" value="" style="shape=tableRow;horizontal=0;startSize=0;swimlaneHead=0;swimlaneBody=0;fillColor=none;collapsible=0;dropTarget=0;points=[[0,0.5],[1,0.5]];portConstraint=eastwest;top=0;left=0;right=0;bottom=0;" parent="EbRBRvWTeYwodcwLKBip-62" vertex="1">
          <mxGeometry y="300" width="180" height="30" as="geometry" />
        </mxCell>
        <mxCell id="EbRBRvWTeYwodcwLKBip-97" value="" style="shape=partialRectangle;connectable=0;fillColor=none;top=0;left=0;bottom=0;right=0;editable=1;overflow=hidden;whiteSpace=wrap;html=1;" parent="EbRBRvWTeYwodcwLKBip-96" vertex="1">
          <mxGeometry width="30" height="30" as="geometry">
            <mxRectangle width="30" height="30" as="alternateBounds" />
          </mxGeometry>
        </mxCell>
        <mxCell id="EbRBRvWTeYwodcwLKBip-98" value="Q_ataques_Bons" style="shape=partialRectangle;connectable=0;fillColor=none;top=0;left=0;bottom=0;right=0;align=left;spacingLeft=6;overflow=hidden;whiteSpace=wrap;html=1;" parent="EbRBRvWTeYwodcwLKBip-96" vertex="1">
          <mxGeometry x="30" width="150" height="30" as="geometry">
            <mxRectangle width="150" height="30" as="alternateBounds" />
          </mxGeometry>
        </mxCell>
        <mxCell id="EbRBRvWTeYwodcwLKBip-99" value="" style="shape=tableRow;horizontal=0;startSize=0;swimlaneHead=0;swimlaneBody=0;fillColor=none;collapsible=0;dropTarget=0;points=[[0,0.5],[1,0.5]];portConstraint=eastwest;top=0;left=0;right=0;bottom=0;" parent="EbRBRvWTeYwodcwLKBip-62" vertex="1">
          <mxGeometry y="330" width="180" height="30" as="geometry" />
        </mxCell>
        <mxCell id="EbRBRvWTeYwodcwLKBip-100" value="" style="shape=partialRectangle;connectable=0;fillColor=none;top=0;left=0;bottom=0;right=0;editable=1;overflow=hidden;whiteSpace=wrap;html=1;" parent="EbRBRvWTeYwodcwLKBip-99" vertex="1">
          <mxGeometry width="30" height="30" as="geometry">
            <mxRectangle width="30" height="30" as="alternateBounds" />
          </mxGeometry>
        </mxCell>
        <mxCell id="EbRBRvWTeYwodcwLKBip-101" value="Q_ataques_Mn" style="shape=partialRectangle;connectable=0;fillColor=none;top=0;left=0;bottom=0;right=0;align=left;spacingLeft=6;overflow=hidden;whiteSpace=wrap;html=1;" parent="EbRBRvWTeYwodcwLKBip-99" vertex="1">
          <mxGeometry x="30" width="150" height="30" as="geometry">
            <mxRectangle width="150" height="30" as="alternateBounds" />
          </mxGeometry>
        </mxCell>
        <mxCell id="EbRBRvWTeYwodcwLKBip-102" value="" style="shape=tableRow;horizontal=0;startSize=0;swimlaneHead=0;swimlaneBody=0;fillColor=none;collapsible=0;dropTarget=0;points=[[0,0.5],[1,0.5]];portConstraint=eastwest;top=0;left=0;right=0;bottom=0;" parent="EbRBRvWTeYwodcwLKBip-62" vertex="1">
          <mxGeometry y="360" width="180" height="30" as="geometry" />
        </mxCell>
        <mxCell id="EbRBRvWTeYwodcwLKBip-103" value="" style="shape=partialRectangle;connectable=0;fillColor=none;top=0;left=0;bottom=0;right=0;editable=1;overflow=hidden;whiteSpace=wrap;html=1;" parent="EbRBRvWTeYwodcwLKBip-102" vertex="1">
          <mxGeometry width="30" height="30" as="geometry">
            <mxRectangle width="30" height="30" as="alternateBounds" />
          </mxGeometry>
        </mxCell>
        <mxCell id="EbRBRvWTeYwodcwLKBip-104" value="Q_ataques_Maus" style="shape=partialRectangle;connectable=0;fillColor=none;top=0;left=0;bottom=0;right=0;align=left;spacingLeft=6;overflow=hidden;whiteSpace=wrap;html=1;" parent="EbRBRvWTeYwodcwLKBip-102" vertex="1">
          <mxGeometry x="30" width="150" height="30" as="geometry">
            <mxRectangle width="150" height="30" as="alternateBounds" />
          </mxGeometry>
        </mxCell>
        <mxCell id="EbRBRvWTeYwodcwLKBip-105" value="" style="shape=tableRow;horizontal=0;startSize=0;swimlaneHead=0;swimlaneBody=0;fillColor=none;collapsible=0;dropTarget=0;points=[[0,0.5],[1,0.5]];portConstraint=eastwest;top=0;left=0;right=0;bottom=0;" parent="EbRBRvWTeYwodcwLKBip-62" vertex="1">
          <mxGeometry y="390" width="180" height="30" as="geometry" />
        </mxCell>
        <mxCell id="EbRBRvWTeYwodcwLKBip-106" value="" style="shape=partialRectangle;connectable=0;fillColor=none;top=0;left=0;bottom=0;right=0;editable=1;overflow=hidden;whiteSpace=wrap;html=1;" parent="EbRBRvWTeYwodcwLKBip-105" vertex="1">
          <mxGeometry width="30" height="30" as="geometry">
            <mxRectangle width="30" height="30" as="alternateBounds" />
          </mxGeometry>
        </mxCell>
        <mxCell id="EbRBRvWTeYwodcwLKBip-107" value="Q_blocks" style="shape=partialRectangle;connectable=0;fillColor=none;top=0;left=0;bottom=0;right=0;align=left;spacingLeft=6;overflow=hidden;whiteSpace=wrap;html=1;" parent="EbRBRvWTeYwodcwLKBip-105" vertex="1">
          <mxGeometry x="30" width="150" height="30" as="geometry">
            <mxRectangle width="150" height="30" as="alternateBounds" />
          </mxGeometry>
        </mxCell>
        <mxCell id="EbRBRvWTeYwodcwLKBip-108" value="" style="shape=tableRow;horizontal=0;startSize=0;swimlaneHead=0;swimlaneBody=0;fillColor=none;collapsible=0;dropTarget=0;points=[[0,0.5],[1,0.5]];portConstraint=eastwest;top=0;left=0;right=0;bottom=0;" parent="EbRBRvWTeYwodcwLKBip-62" vertex="1">
          <mxGeometry y="420" width="180" height="30" as="geometry" />
        </mxCell>
        <mxCell id="EbRBRvWTeYwodcwLKBip-109" value="" style="shape=partialRectangle;connectable=0;fillColor=none;top=0;left=0;bottom=0;right=0;editable=1;overflow=hidden;whiteSpace=wrap;html=1;" parent="EbRBRvWTeYwodcwLKBip-108" vertex="1">
          <mxGeometry width="30" height="30" as="geometry">
            <mxRectangle width="30" height="30" as="alternateBounds" />
          </mxGeometry>
        </mxCell>
        <mxCell id="EbRBRvWTeYwodcwLKBip-110" value="Q_blocks_bons" style="shape=partialRectangle;connectable=0;fillColor=none;top=0;left=0;bottom=0;right=0;align=left;spacingLeft=6;overflow=hidden;whiteSpace=wrap;html=1;" parent="EbRBRvWTeYwodcwLKBip-108" vertex="1">
          <mxGeometry x="30" width="150" height="30" as="geometry">
            <mxRectangle width="150" height="30" as="alternateBounds" />
          </mxGeometry>
        </mxCell>
        <mxCell id="EbRBRvWTeYwodcwLKBip-111" value="" style="shape=tableRow;horizontal=0;startSize=0;swimlaneHead=0;swimlaneBody=0;fillColor=none;collapsible=0;dropTarget=0;points=[[0,0.5],[1,0.5]];portConstraint=eastwest;top=0;left=0;right=0;bottom=0;" parent="EbRBRvWTeYwodcwLKBip-62" vertex="1">
          <mxGeometry y="450" width="180" height="30" as="geometry" />
        </mxCell>
        <mxCell id="EbRBRvWTeYwodcwLKBip-112" value="" style="shape=partialRectangle;connectable=0;fillColor=none;top=0;left=0;bottom=0;right=0;editable=1;overflow=hidden;whiteSpace=wrap;html=1;" parent="EbRBRvWTeYwodcwLKBip-111" vertex="1">
          <mxGeometry width="30" height="30" as="geometry">
            <mxRectangle width="30" height="30" as="alternateBounds" />
          </mxGeometry>
        </mxCell>
        <mxCell id="EbRBRvWTeYwodcwLKBip-113" value="Q_blocks_Mn" style="shape=partialRectangle;connectable=0;fillColor=none;top=0;left=0;bottom=0;right=0;align=left;spacingLeft=6;overflow=hidden;whiteSpace=wrap;html=1;" parent="EbRBRvWTeYwodcwLKBip-111" vertex="1">
          <mxGeometry x="30" width="150" height="30" as="geometry">
            <mxRectangle width="150" height="30" as="alternateBounds" />
          </mxGeometry>
        </mxCell>
        <mxCell id="EbRBRvWTeYwodcwLKBip-114" value="" style="shape=tableRow;horizontal=0;startSize=0;swimlaneHead=0;swimlaneBody=0;fillColor=none;collapsible=0;dropTarget=0;points=[[0,0.5],[1,0.5]];portConstraint=eastwest;top=0;left=0;right=0;bottom=0;" parent="EbRBRvWTeYwodcwLKBip-62" vertex="1">
          <mxGeometry y="480" width="180" height="30" as="geometry" />
        </mxCell>
        <mxCell id="EbRBRvWTeYwodcwLKBip-115" value="" style="shape=partialRectangle;connectable=0;fillColor=none;top=0;left=0;bottom=0;right=0;editable=1;overflow=hidden;whiteSpace=wrap;html=1;" parent="EbRBRvWTeYwodcwLKBip-114" vertex="1">
          <mxGeometry width="30" height="30" as="geometry">
            <mxRectangle width="30" height="30" as="alternateBounds" />
          </mxGeometry>
        </mxCell>
        <mxCell id="EbRBRvWTeYwodcwLKBip-116" value="Q_blocks_Maus" style="shape=partialRectangle;connectable=0;fillColor=none;top=0;left=0;bottom=0;right=0;align=left;spacingLeft=6;overflow=hidden;whiteSpace=wrap;html=1;" parent="EbRBRvWTeYwodcwLKBip-114" vertex="1">
          <mxGeometry x="30" width="150" height="30" as="geometry">
            <mxRectangle width="150" height="30" as="alternateBounds" />
          </mxGeometry>
        </mxCell>
        <mxCell id="EbRBRvWTeYwodcwLKBip-117" value="" style="shape=tableRow;horizontal=0;startSize=0;swimlaneHead=0;swimlaneBody=0;fillColor=none;collapsible=0;dropTarget=0;points=[[0,0.5],[1,0.5]];portConstraint=eastwest;top=0;left=0;right=0;bottom=0;" parent="EbRBRvWTeYwodcwLKBip-62" vertex="1">
          <mxGeometry y="510" width="180" height="30" as="geometry" />
        </mxCell>
        <mxCell id="EbRBRvWTeYwodcwLKBip-118" value="" style="shape=partialRectangle;connectable=0;fillColor=none;top=0;left=0;bottom=0;right=0;editable=1;overflow=hidden;whiteSpace=wrap;html=1;" parent="EbRBRvWTeYwodcwLKBip-117" vertex="1">
          <mxGeometry width="30" height="30" as="geometry">
            <mxRectangle width="30" height="30" as="alternateBounds" />
          </mxGeometry>
        </mxCell>
        <mxCell id="EbRBRvWTeYwodcwLKBip-119" value="Q_servico" style="shape=partialRectangle;connectable=0;fillColor=none;top=0;left=0;bottom=0;right=0;align=left;spacingLeft=6;overflow=hidden;whiteSpace=wrap;html=1;" parent="EbRBRvWTeYwodcwLKBip-117" vertex="1">
          <mxGeometry x="30" width="150" height="30" as="geometry">
            <mxRectangle width="150" height="30" as="alternateBounds" />
          </mxGeometry>
        </mxCell>
        <mxCell id="EbRBRvWTeYwodcwLKBip-120" value="" style="shape=tableRow;horizontal=0;startSize=0;swimlaneHead=0;swimlaneBody=0;fillColor=none;collapsible=0;dropTarget=0;points=[[0,0.5],[1,0.5]];portConstraint=eastwest;top=0;left=0;right=0;bottom=0;" parent="EbRBRvWTeYwodcwLKBip-62" vertex="1">
          <mxGeometry y="540" width="180" height="30" as="geometry" />
        </mxCell>
        <mxCell id="EbRBRvWTeYwodcwLKBip-121" value="" style="shape=partialRectangle;connectable=0;fillColor=none;top=0;left=0;bottom=0;right=0;editable=1;overflow=hidden;whiteSpace=wrap;html=1;" parent="EbRBRvWTeYwodcwLKBip-120" vertex="1">
          <mxGeometry width="30" height="30" as="geometry">
            <mxRectangle width="30" height="30" as="alternateBounds" />
          </mxGeometry>
        </mxCell>
        <mxCell id="EbRBRvWTeYwodcwLKBip-122" value="Q_servico_As" style="shape=partialRectangle;connectable=0;fillColor=none;top=0;left=0;bottom=0;right=0;align=left;spacingLeft=6;overflow=hidden;whiteSpace=wrap;html=1;" parent="EbRBRvWTeYwodcwLKBip-120" vertex="1">
          <mxGeometry x="30" width="150" height="30" as="geometry">
            <mxRectangle width="150" height="30" as="alternateBounds" />
          </mxGeometry>
        </mxCell>
        <mxCell id="EbRBRvWTeYwodcwLKBip-123" value="" style="shape=tableRow;horizontal=0;startSize=0;swimlaneHead=0;swimlaneBody=0;fillColor=none;collapsible=0;dropTarget=0;points=[[0,0.5],[1,0.5]];portConstraint=eastwest;top=0;left=0;right=0;bottom=0;" parent="EbRBRvWTeYwodcwLKBip-62" vertex="1">
          <mxGeometry y="570" width="180" height="30" as="geometry" />
        </mxCell>
        <mxCell id="EbRBRvWTeYwodcwLKBip-124" value="" style="shape=partialRectangle;connectable=0;fillColor=none;top=0;left=0;bottom=0;right=0;editable=1;overflow=hidden;whiteSpace=wrap;html=1;" parent="EbRBRvWTeYwodcwLKBip-123" vertex="1">
          <mxGeometry width="30" height="30" as="geometry">
            <mxRectangle width="30" height="30" as="alternateBounds" />
          </mxGeometry>
        </mxCell>
        <mxCell id="EbRBRvWTeYwodcwLKBip-125" value="Q_servico_Bons" style="shape=partialRectangle;connectable=0;fillColor=none;top=0;left=0;bottom=0;right=0;align=left;spacingLeft=6;overflow=hidden;whiteSpace=wrap;html=1;" parent="EbRBRvWTeYwodcwLKBip-123" vertex="1">
          <mxGeometry x="30" width="150" height="30" as="geometry">
            <mxRectangle width="150" height="30" as="alternateBounds" />
          </mxGeometry>
        </mxCell>
        <mxCell id="EbRBRvWTeYwodcwLKBip-126" value="" style="shape=tableRow;horizontal=0;startSize=0;swimlaneHead=0;swimlaneBody=0;fillColor=none;collapsible=0;dropTarget=0;points=[[0,0.5],[1,0.5]];portConstraint=eastwest;top=0;left=0;right=0;bottom=0;" parent="EbRBRvWTeYwodcwLKBip-62" vertex="1">
          <mxGeometry y="600" width="180" height="30" as="geometry" />
        </mxCell>
        <mxCell id="EbRBRvWTeYwodcwLKBip-127" value="" style="shape=partialRectangle;connectable=0;fillColor=none;top=0;left=0;bottom=0;right=0;editable=1;overflow=hidden;whiteSpace=wrap;html=1;" parent="EbRBRvWTeYwodcwLKBip-126" vertex="1">
          <mxGeometry width="30" height="30" as="geometry">
            <mxRectangle width="30" height="30" as="alternateBounds" />
          </mxGeometry>
        </mxCell>
        <mxCell id="EbRBRvWTeYwodcwLKBip-128" value="Q_servico_Mn" style="shape=partialRectangle;connectable=0;fillColor=none;top=0;left=0;bottom=0;right=0;align=left;spacingLeft=6;overflow=hidden;whiteSpace=wrap;html=1;" parent="EbRBRvWTeYwodcwLKBip-126" vertex="1">
          <mxGeometry x="30" width="150" height="30" as="geometry">
            <mxRectangle width="150" height="30" as="alternateBounds" />
          </mxGeometry>
        </mxCell>
        <mxCell id="EbRBRvWTeYwodcwLKBip-129" value="" style="shape=tableRow;horizontal=0;startSize=0;swimlaneHead=0;swimlaneBody=0;fillColor=none;collapsible=0;dropTarget=0;points=[[0,0.5],[1,0.5]];portConstraint=eastwest;top=0;left=0;right=0;bottom=0;" parent="EbRBRvWTeYwodcwLKBip-62" vertex="1">
          <mxGeometry y="630" width="180" height="30" as="geometry" />
        </mxCell>
        <mxCell id="EbRBRvWTeYwodcwLKBip-130" value="" style="shape=partialRectangle;connectable=0;fillColor=none;top=0;left=0;bottom=0;right=0;editable=1;overflow=hidden;whiteSpace=wrap;html=1;" parent="EbRBRvWTeYwodcwLKBip-129" vertex="1">
          <mxGeometry width="30" height="30" as="geometry">
            <mxRectangle width="30" height="30" as="alternateBounds" />
          </mxGeometry>
        </mxCell>
        <mxCell id="EbRBRvWTeYwodcwLKBip-131" value="Q_servico_Maus" style="shape=partialRectangle;connectable=0;fillColor=none;top=0;left=0;bottom=0;right=0;align=left;spacingLeft=6;overflow=hidden;whiteSpace=wrap;html=1;" parent="EbRBRvWTeYwodcwLKBip-129" vertex="1">
          <mxGeometry x="30" width="150" height="30" as="geometry">
            <mxRectangle width="150" height="30" as="alternateBounds" />
          </mxGeometry>
        </mxCell>
        <mxCell id="EbRBRvWTeYwodcwLKBip-132" value="" style="shape=tableRow;horizontal=0;startSize=0;swimlaneHead=0;swimlaneBody=0;fillColor=none;collapsible=0;dropTarget=0;points=[[0,0.5],[1,0.5]];portConstraint=eastwest;top=0;left=0;right=0;bottom=0;" parent="EbRBRvWTeYwodcwLKBip-62" vertex="1">
          <mxGeometry y="660" width="180" height="30" as="geometry" />
        </mxCell>
        <mxCell id="EbRBRvWTeYwodcwLKBip-133" value="" style="shape=partialRectangle;connectable=0;fillColor=none;top=0;left=0;bottom=0;right=0;editable=1;overflow=hidden;whiteSpace=wrap;html=1;" parent="EbRBRvWTeYwodcwLKBip-132" vertex="1">
          <mxGeometry width="30" height="30" as="geometry">
            <mxRectangle width="30" height="30" as="alternateBounds" />
          </mxGeometry>
        </mxCell>
        <mxCell id="EbRBRvWTeYwodcwLKBip-134" value="Q_recepcao" style="shape=partialRectangle;connectable=0;fillColor=none;top=0;left=0;bottom=0;right=0;align=left;spacingLeft=6;overflow=hidden;whiteSpace=wrap;html=1;" parent="EbRBRvWTeYwodcwLKBip-132" vertex="1">
          <mxGeometry x="30" width="150" height="30" as="geometry">
            <mxRectangle width="150" height="30" as="alternateBounds" />
          </mxGeometry>
        </mxCell>
        <mxCell id="EbRBRvWTeYwodcwLKBip-135" value="" style="shape=tableRow;horizontal=0;startSize=0;swimlaneHead=0;swimlaneBody=0;fillColor=none;collapsible=0;dropTarget=0;points=[[0,0.5],[1,0.5]];portConstraint=eastwest;top=0;left=0;right=0;bottom=0;" parent="EbRBRvWTeYwodcwLKBip-62" vertex="1">
          <mxGeometry y="690" width="180" height="30" as="geometry" />
        </mxCell>
        <mxCell id="EbRBRvWTeYwodcwLKBip-136" value="" style="shape=partialRectangle;connectable=0;fillColor=none;top=0;left=0;bottom=0;right=0;editable=1;overflow=hidden;whiteSpace=wrap;html=1;" parent="EbRBRvWTeYwodcwLKBip-135" vertex="1">
          <mxGeometry width="30" height="30" as="geometry">
            <mxRectangle width="30" height="30" as="alternateBounds" />
          </mxGeometry>
        </mxCell>
        <mxCell id="EbRBRvWTeYwodcwLKBip-137" value="Q_recepcao_bons" style="shape=partialRectangle;connectable=0;fillColor=none;top=0;left=0;bottom=0;right=0;align=left;spacingLeft=6;overflow=hidden;whiteSpace=wrap;html=1;" parent="EbRBRvWTeYwodcwLKBip-135" vertex="1">
          <mxGeometry x="30" width="150" height="30" as="geometry">
            <mxRectangle width="150" height="30" as="alternateBounds" />
          </mxGeometry>
        </mxCell>
        <mxCell id="EbRBRvWTeYwodcwLKBip-138" value="" style="shape=tableRow;horizontal=0;startSize=0;swimlaneHead=0;swimlaneBody=0;fillColor=none;collapsible=0;dropTarget=0;points=[[0,0.5],[1,0.5]];portConstraint=eastwest;top=0;left=0;right=0;bottom=0;" parent="EbRBRvWTeYwodcwLKBip-62" vertex="1">
          <mxGeometry y="720" width="180" height="30" as="geometry" />
        </mxCell>
        <mxCell id="EbRBRvWTeYwodcwLKBip-139" value="" style="shape=partialRectangle;connectable=0;fillColor=none;top=0;left=0;bottom=0;right=0;editable=1;overflow=hidden;whiteSpace=wrap;html=1;" parent="EbRBRvWTeYwodcwLKBip-138" vertex="1">
          <mxGeometry width="30" height="30" as="geometry">
            <mxRectangle width="30" height="30" as="alternateBounds" />
          </mxGeometry>
        </mxCell>
        <mxCell id="EbRBRvWTeYwodcwLKBip-140" value="Q_recepcao_Mn" style="shape=partialRectangle;connectable=0;fillColor=none;top=0;left=0;bottom=0;right=0;align=left;spacingLeft=6;overflow=hidden;whiteSpace=wrap;html=1;" parent="EbRBRvWTeYwodcwLKBip-138" vertex="1">
          <mxGeometry x="30" width="150" height="30" as="geometry">
            <mxRectangle width="150" height="30" as="alternateBounds" />
          </mxGeometry>
        </mxCell>
        <mxCell id="EbRBRvWTeYwodcwLKBip-141" value="" style="shape=tableRow;horizontal=0;startSize=0;swimlaneHead=0;swimlaneBody=0;fillColor=none;collapsible=0;dropTarget=0;points=[[0,0.5],[1,0.5]];portConstraint=eastwest;top=0;left=0;right=0;bottom=0;" parent="EbRBRvWTeYwodcwLKBip-62" vertex="1">
          <mxGeometry y="750" width="180" height="30" as="geometry" />
        </mxCell>
        <mxCell id="EbRBRvWTeYwodcwLKBip-142" value="" style="shape=partialRectangle;connectable=0;fillColor=none;top=0;left=0;bottom=0;right=0;editable=1;overflow=hidden;whiteSpace=wrap;html=1;" parent="EbRBRvWTeYwodcwLKBip-141" vertex="1">
          <mxGeometry width="30" height="30" as="geometry">
            <mxRectangle width="30" height="30" as="alternateBounds" />
          </mxGeometry>
        </mxCell>
        <mxCell id="EbRBRvWTeYwodcwLKBip-143" value="Q_recepcao_Maus" style="shape=partialRectangle;connectable=0;fillColor=none;top=0;left=0;bottom=0;right=0;align=left;spacingLeft=6;overflow=hidden;whiteSpace=wrap;html=1;" parent="EbRBRvWTeYwodcwLKBip-141" vertex="1">
          <mxGeometry x="30" width="150" height="30" as="geometry">
            <mxRectangle width="150" height="30" as="alternateBounds" />
          </mxGeometry>
        </mxCell>
        <mxCell id="EbRBRvWTeYwodcwLKBip-158" value="estatistica_final" style="shape=table;startSize=30;container=1;collapsible=1;childLayout=tableLayout;fixedRows=1;rowLines=0;fontStyle=1;align=center;resizeLast=1;html=1;" parent="1" vertex="1">
          <mxGeometry x="-80" y="-210" width="180" height="720" as="geometry" />
        </mxCell>
        <mxCell id="EbRBRvWTeYwodcwLKBip-159" value="" style="shape=tableRow;horizontal=0;startSize=0;swimlaneHead=0;swimlaneBody=0;fillColor=none;collapsible=0;dropTarget=0;points=[[0,0.5],[1,0.5]];portConstraint=eastwest;top=0;left=0;right=0;bottom=1;" parent="EbRBRvWTeYwodcwLKBip-158" vertex="1">
          <mxGeometry y="30" width="180" height="30" as="geometry" />
        </mxCell>
        <mxCell id="EbRBRvWTeYwodcwLKBip-160" value="ID" style="shape=partialRectangle;connectable=0;fillColor=none;top=0;left=0;bottom=0;right=0;fontStyle=1;overflow=hidden;whiteSpace=wrap;html=1;" parent="EbRBRvWTeYwodcwLKBip-159" vertex="1">
          <mxGeometry width="30" height="30" as="geometry">
            <mxRectangle width="30" height="30" as="alternateBounds" />
          </mxGeometry>
        </mxCell>
        <mxCell id="EbRBRvWTeYwodcwLKBip-161" value="id_estatistica_final" style="shape=partialRectangle;connectable=0;fillColor=none;top=0;left=0;bottom=0;right=0;align=left;spacingLeft=6;fontStyle=5;overflow=hidden;whiteSpace=wrap;html=1;" parent="EbRBRvWTeYwodcwLKBip-159" vertex="1">
          <mxGeometry x="30" width="150" height="30" as="geometry">
            <mxRectangle width="150" height="30" as="alternateBounds" />
          </mxGeometry>
        </mxCell>
        <mxCell id="EbRBRvWTeYwodcwLKBip-162" value="" style="shape=tableRow;horizontal=0;startSize=0;swimlaneHead=0;swimlaneBody=0;fillColor=none;collapsible=0;dropTarget=0;points=[[0,0.5],[1,0.5]];portConstraint=eastwest;top=0;left=0;right=0;bottom=0;" parent="EbRBRvWTeYwodcwLKBip-158" vertex="1">
          <mxGeometry y="60" width="180" height="30" as="geometry" />
        </mxCell>
        <mxCell id="EbRBRvWTeYwodcwLKBip-163" value="" style="shape=partialRectangle;connectable=0;fillColor=none;top=0;left=0;bottom=0;right=0;editable=1;overflow=hidden;whiteSpace=wrap;html=1;" parent="EbRBRvWTeYwodcwLKBip-162" vertex="1">
          <mxGeometry width="30" height="30" as="geometry">
            <mxRectangle width="30" height="30" as="alternateBounds" />
          </mxGeometry>
        </mxCell>
        <mxCell id="EbRBRvWTeYwodcwLKBip-164" value="id_jogador" style="shape=partialRectangle;connectable=0;fillColor=none;top=0;left=0;bottom=0;right=0;align=left;spacingLeft=6;overflow=hidden;whiteSpace=wrap;html=1;" parent="EbRBRvWTeYwodcwLKBip-162" vertex="1">
          <mxGeometry x="30" width="150" height="30" as="geometry">
            <mxRectangle width="150" height="30" as="alternateBounds" />
          </mxGeometry>
        </mxCell>
        <mxCell id="EbRBRvWTeYwodcwLKBip-315" value="" style="shape=tableRow;horizontal=0;startSize=0;swimlaneHead=0;swimlaneBody=0;fillColor=none;collapsible=0;dropTarget=0;points=[[0,0.5],[1,0.5]];portConstraint=eastwest;top=0;left=0;right=0;bottom=0;" parent="EbRBRvWTeYwodcwLKBip-158" vertex="1">
          <mxGeometry y="90" width="180" height="30" as="geometry" />
        </mxCell>
        <mxCell id="EbRBRvWTeYwodcwLKBip-316" value="" style="shape=partialRectangle;connectable=0;fillColor=none;top=0;left=0;bottom=0;right=0;editable=1;overflow=hidden;whiteSpace=wrap;html=1;" parent="EbRBRvWTeYwodcwLKBip-315" vertex="1">
          <mxGeometry width="30" height="30" as="geometry">
            <mxRectangle width="30" height="30" as="alternateBounds" />
          </mxGeometry>
        </mxCell>
        <mxCell id="EbRBRvWTeYwodcwLKBip-317" value="Q_passes" style="shape=partialRectangle;connectable=0;fillColor=none;top=0;left=0;bottom=0;right=0;align=left;spacingLeft=6;overflow=hidden;whiteSpace=wrap;html=1;" parent="EbRBRvWTeYwodcwLKBip-315" vertex="1">
          <mxGeometry x="30" width="150" height="30" as="geometry">
            <mxRectangle width="150" height="30" as="alternateBounds" />
          </mxGeometry>
        </mxCell>
        <mxCell id="EbRBRvWTeYwodcwLKBip-165" value="" style="shape=tableRow;horizontal=0;startSize=0;swimlaneHead=0;swimlaneBody=0;fillColor=none;collapsible=0;dropTarget=0;points=[[0,0.5],[1,0.5]];portConstraint=eastwest;top=0;left=0;right=0;bottom=0;" parent="EbRBRvWTeYwodcwLKBip-158" vertex="1">
          <mxGeometry y="120" width="180" height="30" as="geometry" />
        </mxCell>
        <mxCell id="EbRBRvWTeYwodcwLKBip-166" value="" style="shape=partialRectangle;connectable=0;fillColor=none;top=0;left=0;bottom=0;right=0;editable=1;overflow=hidden;whiteSpace=wrap;html=1;" parent="EbRBRvWTeYwodcwLKBip-165" vertex="1">
          <mxGeometry width="30" height="30" as="geometry">
            <mxRectangle width="30" height="30" as="alternateBounds" />
          </mxGeometry>
        </mxCell>
        <mxCell id="EbRBRvWTeYwodcwLKBip-167" value="Q_passes_Bons" style="shape=partialRectangle;connectable=0;fillColor=none;top=0;left=0;bottom=0;right=0;align=left;spacingLeft=6;overflow=hidden;whiteSpace=wrap;html=1;" parent="EbRBRvWTeYwodcwLKBip-165" vertex="1">
          <mxGeometry x="30" width="150" height="30" as="geometry">
            <mxRectangle width="150" height="30" as="alternateBounds" />
          </mxGeometry>
        </mxCell>
        <mxCell id="EbRBRvWTeYwodcwLKBip-168" value="" style="shape=tableRow;horizontal=0;startSize=0;swimlaneHead=0;swimlaneBody=0;fillColor=none;collapsible=0;dropTarget=0;points=[[0,0.5],[1,0.5]];portConstraint=eastwest;top=0;left=0;right=0;bottom=0;" parent="EbRBRvWTeYwodcwLKBip-158" vertex="1">
          <mxGeometry y="150" width="180" height="30" as="geometry" />
        </mxCell>
        <mxCell id="EbRBRvWTeYwodcwLKBip-169" value="" style="shape=partialRectangle;connectable=0;fillColor=none;top=0;left=0;bottom=0;right=0;editable=1;overflow=hidden;whiteSpace=wrap;html=1;" parent="EbRBRvWTeYwodcwLKBip-168" vertex="1">
          <mxGeometry width="30" height="30" as="geometry">
            <mxRectangle width="30" height="30" as="alternateBounds" />
          </mxGeometry>
        </mxCell>
        <mxCell id="EbRBRvWTeYwodcwLKBip-170" value="Q_passes_Mn" style="shape=partialRectangle;connectable=0;fillColor=none;top=0;left=0;bottom=0;right=0;align=left;spacingLeft=6;overflow=hidden;whiteSpace=wrap;html=1;" parent="EbRBRvWTeYwodcwLKBip-168" vertex="1">
          <mxGeometry x="30" width="150" height="30" as="geometry">
            <mxRectangle width="150" height="30" as="alternateBounds" />
          </mxGeometry>
        </mxCell>
        <mxCell id="EbRBRvWTeYwodcwLKBip-171" value="" style="shape=tableRow;horizontal=0;startSize=0;swimlaneHead=0;swimlaneBody=0;fillColor=none;collapsible=0;dropTarget=0;points=[[0,0.5],[1,0.5]];portConstraint=eastwest;top=0;left=0;right=0;bottom=0;" parent="EbRBRvWTeYwodcwLKBip-158" vertex="1">
          <mxGeometry y="180" width="180" height="30" as="geometry" />
        </mxCell>
        <mxCell id="EbRBRvWTeYwodcwLKBip-172" value="" style="shape=partialRectangle;connectable=0;fillColor=none;top=0;left=0;bottom=0;right=0;editable=1;overflow=hidden;whiteSpace=wrap;html=1;" parent="EbRBRvWTeYwodcwLKBip-171" vertex="1">
          <mxGeometry width="30" height="30" as="geometry">
            <mxRectangle width="30" height="30" as="alternateBounds" />
          </mxGeometry>
        </mxCell>
        <mxCell id="EbRBRvWTeYwodcwLKBip-173" value="Q_passes_Maus" style="shape=partialRectangle;connectable=0;fillColor=none;top=0;left=0;bottom=0;right=0;align=left;spacingLeft=6;overflow=hidden;whiteSpace=wrap;html=1;" parent="EbRBRvWTeYwodcwLKBip-171" vertex="1">
          <mxGeometry x="30" width="150" height="30" as="geometry">
            <mxRectangle width="150" height="30" as="alternateBounds" />
          </mxGeometry>
        </mxCell>
        <mxCell id="EbRBRvWTeYwodcwLKBip-174" value="" style="shape=tableRow;horizontal=0;startSize=0;swimlaneHead=0;swimlaneBody=0;fillColor=none;collapsible=0;dropTarget=0;points=[[0,0.5],[1,0.5]];portConstraint=eastwest;top=0;left=0;right=0;bottom=0;" parent="EbRBRvWTeYwodcwLKBip-158" vertex="1">
          <mxGeometry y="210" width="180" height="30" as="geometry" />
        </mxCell>
        <mxCell id="EbRBRvWTeYwodcwLKBip-175" value="" style="shape=partialRectangle;connectable=0;fillColor=none;top=0;left=0;bottom=0;right=0;editable=1;overflow=hidden;whiteSpace=wrap;html=1;" parent="EbRBRvWTeYwodcwLKBip-174" vertex="1">
          <mxGeometry width="30" height="30" as="geometry">
            <mxRectangle width="30" height="30" as="alternateBounds" />
          </mxGeometry>
        </mxCell>
        <mxCell id="EbRBRvWTeYwodcwLKBip-176" value="Q_ataques" style="shape=partialRectangle;connectable=0;fillColor=none;top=0;left=0;bottom=0;right=0;align=left;spacingLeft=6;overflow=hidden;whiteSpace=wrap;html=1;" parent="EbRBRvWTeYwodcwLKBip-174" vertex="1">
          <mxGeometry x="30" width="150" height="30" as="geometry">
            <mxRectangle width="150" height="30" as="alternateBounds" />
          </mxGeometry>
        </mxCell>
        <mxCell id="EbRBRvWTeYwodcwLKBip-177" value="" style="shape=tableRow;horizontal=0;startSize=0;swimlaneHead=0;swimlaneBody=0;fillColor=none;collapsible=0;dropTarget=0;points=[[0,0.5],[1,0.5]];portConstraint=eastwest;top=0;left=0;right=0;bottom=0;" parent="EbRBRvWTeYwodcwLKBip-158" vertex="1">
          <mxGeometry y="240" width="180" height="30" as="geometry" />
        </mxCell>
        <mxCell id="EbRBRvWTeYwodcwLKBip-178" value="" style="shape=partialRectangle;connectable=0;fillColor=none;top=0;left=0;bottom=0;right=0;editable=1;overflow=hidden;whiteSpace=wrap;html=1;" parent="EbRBRvWTeYwodcwLKBip-177" vertex="1">
          <mxGeometry width="30" height="30" as="geometry">
            <mxRectangle width="30" height="30" as="alternateBounds" />
          </mxGeometry>
        </mxCell>
        <mxCell id="EbRBRvWTeYwodcwLKBip-179" value="Q_ataques_Bons" style="shape=partialRectangle;connectable=0;fillColor=none;top=0;left=0;bottom=0;right=0;align=left;spacingLeft=6;overflow=hidden;whiteSpace=wrap;html=1;" parent="EbRBRvWTeYwodcwLKBip-177" vertex="1">
          <mxGeometry x="30" width="150" height="30" as="geometry">
            <mxRectangle width="150" height="30" as="alternateBounds" />
          </mxGeometry>
        </mxCell>
        <mxCell id="EbRBRvWTeYwodcwLKBip-180" value="" style="shape=tableRow;horizontal=0;startSize=0;swimlaneHead=0;swimlaneBody=0;fillColor=none;collapsible=0;dropTarget=0;points=[[0,0.5],[1,0.5]];portConstraint=eastwest;top=0;left=0;right=0;bottom=0;" parent="EbRBRvWTeYwodcwLKBip-158" vertex="1">
          <mxGeometry y="270" width="180" height="30" as="geometry" />
        </mxCell>
        <mxCell id="EbRBRvWTeYwodcwLKBip-181" value="" style="shape=partialRectangle;connectable=0;fillColor=none;top=0;left=0;bottom=0;right=0;editable=1;overflow=hidden;whiteSpace=wrap;html=1;" parent="EbRBRvWTeYwodcwLKBip-180" vertex="1">
          <mxGeometry width="30" height="30" as="geometry">
            <mxRectangle width="30" height="30" as="alternateBounds" />
          </mxGeometry>
        </mxCell>
        <mxCell id="EbRBRvWTeYwodcwLKBip-182" value="Q_ataques_Mn" style="shape=partialRectangle;connectable=0;fillColor=none;top=0;left=0;bottom=0;right=0;align=left;spacingLeft=6;overflow=hidden;whiteSpace=wrap;html=1;" parent="EbRBRvWTeYwodcwLKBip-180" vertex="1">
          <mxGeometry x="30" width="150" height="30" as="geometry">
            <mxRectangle width="150" height="30" as="alternateBounds" />
          </mxGeometry>
        </mxCell>
        <mxCell id="EbRBRvWTeYwodcwLKBip-183" value="" style="shape=tableRow;horizontal=0;startSize=0;swimlaneHead=0;swimlaneBody=0;fillColor=none;collapsible=0;dropTarget=0;points=[[0,0.5],[1,0.5]];portConstraint=eastwest;top=0;left=0;right=0;bottom=0;" parent="EbRBRvWTeYwodcwLKBip-158" vertex="1">
          <mxGeometry y="300" width="180" height="30" as="geometry" />
        </mxCell>
        <mxCell id="EbRBRvWTeYwodcwLKBip-184" value="" style="shape=partialRectangle;connectable=0;fillColor=none;top=0;left=0;bottom=0;right=0;editable=1;overflow=hidden;whiteSpace=wrap;html=1;" parent="EbRBRvWTeYwodcwLKBip-183" vertex="1">
          <mxGeometry width="30" height="30" as="geometry">
            <mxRectangle width="30" height="30" as="alternateBounds" />
          </mxGeometry>
        </mxCell>
        <mxCell id="EbRBRvWTeYwodcwLKBip-185" value="Q_ataques_Maus" style="shape=partialRectangle;connectable=0;fillColor=none;top=0;left=0;bottom=0;right=0;align=left;spacingLeft=6;overflow=hidden;whiteSpace=wrap;html=1;" parent="EbRBRvWTeYwodcwLKBip-183" vertex="1">
          <mxGeometry x="30" width="150" height="30" as="geometry">
            <mxRectangle width="150" height="30" as="alternateBounds" />
          </mxGeometry>
        </mxCell>
        <mxCell id="EbRBRvWTeYwodcwLKBip-186" value="" style="shape=tableRow;horizontal=0;startSize=0;swimlaneHead=0;swimlaneBody=0;fillColor=none;collapsible=0;dropTarget=0;points=[[0,0.5],[1,0.5]];portConstraint=eastwest;top=0;left=0;right=0;bottom=0;" parent="EbRBRvWTeYwodcwLKBip-158" vertex="1">
          <mxGeometry y="330" width="180" height="30" as="geometry" />
        </mxCell>
        <mxCell id="EbRBRvWTeYwodcwLKBip-187" value="" style="shape=partialRectangle;connectable=0;fillColor=none;top=0;left=0;bottom=0;right=0;editable=1;overflow=hidden;whiteSpace=wrap;html=1;" parent="EbRBRvWTeYwodcwLKBip-186" vertex="1">
          <mxGeometry width="30" height="30" as="geometry">
            <mxRectangle width="30" height="30" as="alternateBounds" />
          </mxGeometry>
        </mxCell>
        <mxCell id="EbRBRvWTeYwodcwLKBip-188" value="Q_blocks" style="shape=partialRectangle;connectable=0;fillColor=none;top=0;left=0;bottom=0;right=0;align=left;spacingLeft=6;overflow=hidden;whiteSpace=wrap;html=1;" parent="EbRBRvWTeYwodcwLKBip-186" vertex="1">
          <mxGeometry x="30" width="150" height="30" as="geometry">
            <mxRectangle width="150" height="30" as="alternateBounds" />
          </mxGeometry>
        </mxCell>
        <mxCell id="EbRBRvWTeYwodcwLKBip-189" value="" style="shape=tableRow;horizontal=0;startSize=0;swimlaneHead=0;swimlaneBody=0;fillColor=none;collapsible=0;dropTarget=0;points=[[0,0.5],[1,0.5]];portConstraint=eastwest;top=0;left=0;right=0;bottom=0;" parent="EbRBRvWTeYwodcwLKBip-158" vertex="1">
          <mxGeometry y="360" width="180" height="30" as="geometry" />
        </mxCell>
        <mxCell id="EbRBRvWTeYwodcwLKBip-190" value="" style="shape=partialRectangle;connectable=0;fillColor=none;top=0;left=0;bottom=0;right=0;editable=1;overflow=hidden;whiteSpace=wrap;html=1;" parent="EbRBRvWTeYwodcwLKBip-189" vertex="1">
          <mxGeometry width="30" height="30" as="geometry">
            <mxRectangle width="30" height="30" as="alternateBounds" />
          </mxGeometry>
        </mxCell>
        <mxCell id="EbRBRvWTeYwodcwLKBip-191" value="Q_blocks_bons" style="shape=partialRectangle;connectable=0;fillColor=none;top=0;left=0;bottom=0;right=0;align=left;spacingLeft=6;overflow=hidden;whiteSpace=wrap;html=1;" parent="EbRBRvWTeYwodcwLKBip-189" vertex="1">
          <mxGeometry x="30" width="150" height="30" as="geometry">
            <mxRectangle width="150" height="30" as="alternateBounds" />
          </mxGeometry>
        </mxCell>
        <mxCell id="EbRBRvWTeYwodcwLKBip-192" value="" style="shape=tableRow;horizontal=0;startSize=0;swimlaneHead=0;swimlaneBody=0;fillColor=none;collapsible=0;dropTarget=0;points=[[0,0.5],[1,0.5]];portConstraint=eastwest;top=0;left=0;right=0;bottom=0;" parent="EbRBRvWTeYwodcwLKBip-158" vertex="1">
          <mxGeometry y="390" width="180" height="30" as="geometry" />
        </mxCell>
        <mxCell id="EbRBRvWTeYwodcwLKBip-193" value="" style="shape=partialRectangle;connectable=0;fillColor=none;top=0;left=0;bottom=0;right=0;editable=1;overflow=hidden;whiteSpace=wrap;html=1;" parent="EbRBRvWTeYwodcwLKBip-192" vertex="1">
          <mxGeometry width="30" height="30" as="geometry">
            <mxRectangle width="30" height="30" as="alternateBounds" />
          </mxGeometry>
        </mxCell>
        <mxCell id="EbRBRvWTeYwodcwLKBip-194" value="Q_blocks_Mn" style="shape=partialRectangle;connectable=0;fillColor=none;top=0;left=0;bottom=0;right=0;align=left;spacingLeft=6;overflow=hidden;whiteSpace=wrap;html=1;" parent="EbRBRvWTeYwodcwLKBip-192" vertex="1">
          <mxGeometry x="30" width="150" height="30" as="geometry">
            <mxRectangle width="150" height="30" as="alternateBounds" />
          </mxGeometry>
        </mxCell>
        <mxCell id="EbRBRvWTeYwodcwLKBip-195" value="" style="shape=tableRow;horizontal=0;startSize=0;swimlaneHead=0;swimlaneBody=0;fillColor=none;collapsible=0;dropTarget=0;points=[[0,0.5],[1,0.5]];portConstraint=eastwest;top=0;left=0;right=0;bottom=0;" parent="EbRBRvWTeYwodcwLKBip-158" vertex="1">
          <mxGeometry y="420" width="180" height="30" as="geometry" />
        </mxCell>
        <mxCell id="EbRBRvWTeYwodcwLKBip-196" value="" style="shape=partialRectangle;connectable=0;fillColor=none;top=0;left=0;bottom=0;right=0;editable=1;overflow=hidden;whiteSpace=wrap;html=1;" parent="EbRBRvWTeYwodcwLKBip-195" vertex="1">
          <mxGeometry width="30" height="30" as="geometry">
            <mxRectangle width="30" height="30" as="alternateBounds" />
          </mxGeometry>
        </mxCell>
        <mxCell id="EbRBRvWTeYwodcwLKBip-197" value="Q_blocks_Maus" style="shape=partialRectangle;connectable=0;fillColor=none;top=0;left=0;bottom=0;right=0;align=left;spacingLeft=6;overflow=hidden;whiteSpace=wrap;html=1;" parent="EbRBRvWTeYwodcwLKBip-195" vertex="1">
          <mxGeometry x="30" width="150" height="30" as="geometry">
            <mxRectangle width="150" height="30" as="alternateBounds" />
          </mxGeometry>
        </mxCell>
        <mxCell id="EbRBRvWTeYwodcwLKBip-198" value="" style="shape=tableRow;horizontal=0;startSize=0;swimlaneHead=0;swimlaneBody=0;fillColor=none;collapsible=0;dropTarget=0;points=[[0,0.5],[1,0.5]];portConstraint=eastwest;top=0;left=0;right=0;bottom=0;" parent="EbRBRvWTeYwodcwLKBip-158" vertex="1">
          <mxGeometry y="450" width="180" height="30" as="geometry" />
        </mxCell>
        <mxCell id="EbRBRvWTeYwodcwLKBip-199" value="" style="shape=partialRectangle;connectable=0;fillColor=none;top=0;left=0;bottom=0;right=0;editable=1;overflow=hidden;whiteSpace=wrap;html=1;" parent="EbRBRvWTeYwodcwLKBip-198" vertex="1">
          <mxGeometry width="30" height="30" as="geometry">
            <mxRectangle width="30" height="30" as="alternateBounds" />
          </mxGeometry>
        </mxCell>
        <mxCell id="EbRBRvWTeYwodcwLKBip-200" value="Q_servico" style="shape=partialRectangle;connectable=0;fillColor=none;top=0;left=0;bottom=0;right=0;align=left;spacingLeft=6;overflow=hidden;whiteSpace=wrap;html=1;" parent="EbRBRvWTeYwodcwLKBip-198" vertex="1">
          <mxGeometry x="30" width="150" height="30" as="geometry">
            <mxRectangle width="150" height="30" as="alternateBounds" />
          </mxGeometry>
        </mxCell>
        <mxCell id="EbRBRvWTeYwodcwLKBip-201" value="" style="shape=tableRow;horizontal=0;startSize=0;swimlaneHead=0;swimlaneBody=0;fillColor=none;collapsible=0;dropTarget=0;points=[[0,0.5],[1,0.5]];portConstraint=eastwest;top=0;left=0;right=0;bottom=0;" parent="EbRBRvWTeYwodcwLKBip-158" vertex="1">
          <mxGeometry y="480" width="180" height="30" as="geometry" />
        </mxCell>
        <mxCell id="EbRBRvWTeYwodcwLKBip-202" value="" style="shape=partialRectangle;connectable=0;fillColor=none;top=0;left=0;bottom=0;right=0;editable=1;overflow=hidden;whiteSpace=wrap;html=1;" parent="EbRBRvWTeYwodcwLKBip-201" vertex="1">
          <mxGeometry width="30" height="30" as="geometry">
            <mxRectangle width="30" height="30" as="alternateBounds" />
          </mxGeometry>
        </mxCell>
        <mxCell id="EbRBRvWTeYwodcwLKBip-203" value="Q_servico_As" style="shape=partialRectangle;connectable=0;fillColor=none;top=0;left=0;bottom=0;right=0;align=left;spacingLeft=6;overflow=hidden;whiteSpace=wrap;html=1;" parent="EbRBRvWTeYwodcwLKBip-201" vertex="1">
          <mxGeometry x="30" width="150" height="30" as="geometry">
            <mxRectangle width="150" height="30" as="alternateBounds" />
          </mxGeometry>
        </mxCell>
        <mxCell id="EbRBRvWTeYwodcwLKBip-204" value="" style="shape=tableRow;horizontal=0;startSize=0;swimlaneHead=0;swimlaneBody=0;fillColor=none;collapsible=0;dropTarget=0;points=[[0,0.5],[1,0.5]];portConstraint=eastwest;top=0;left=0;right=0;bottom=0;" parent="EbRBRvWTeYwodcwLKBip-158" vertex="1">
          <mxGeometry y="510" width="180" height="30" as="geometry" />
        </mxCell>
        <mxCell id="EbRBRvWTeYwodcwLKBip-205" value="" style="shape=partialRectangle;connectable=0;fillColor=none;top=0;left=0;bottom=0;right=0;editable=1;overflow=hidden;whiteSpace=wrap;html=1;" parent="EbRBRvWTeYwodcwLKBip-204" vertex="1">
          <mxGeometry width="30" height="30" as="geometry">
            <mxRectangle width="30" height="30" as="alternateBounds" />
          </mxGeometry>
        </mxCell>
        <mxCell id="EbRBRvWTeYwodcwLKBip-206" value="Q_servico_Bons" style="shape=partialRectangle;connectable=0;fillColor=none;top=0;left=0;bottom=0;right=0;align=left;spacingLeft=6;overflow=hidden;whiteSpace=wrap;html=1;" parent="EbRBRvWTeYwodcwLKBip-204" vertex="1">
          <mxGeometry x="30" width="150" height="30" as="geometry">
            <mxRectangle width="150" height="30" as="alternateBounds" />
          </mxGeometry>
        </mxCell>
        <mxCell id="EbRBRvWTeYwodcwLKBip-207" value="" style="shape=tableRow;horizontal=0;startSize=0;swimlaneHead=0;swimlaneBody=0;fillColor=none;collapsible=0;dropTarget=0;points=[[0,0.5],[1,0.5]];portConstraint=eastwest;top=0;left=0;right=0;bottom=0;" parent="EbRBRvWTeYwodcwLKBip-158" vertex="1">
          <mxGeometry y="540" width="180" height="30" as="geometry" />
        </mxCell>
        <mxCell id="EbRBRvWTeYwodcwLKBip-208" value="" style="shape=partialRectangle;connectable=0;fillColor=none;top=0;left=0;bottom=0;right=0;editable=1;overflow=hidden;whiteSpace=wrap;html=1;" parent="EbRBRvWTeYwodcwLKBip-207" vertex="1">
          <mxGeometry width="30" height="30" as="geometry">
            <mxRectangle width="30" height="30" as="alternateBounds" />
          </mxGeometry>
        </mxCell>
        <mxCell id="EbRBRvWTeYwodcwLKBip-209" value="Q_servico_Mn" style="shape=partialRectangle;connectable=0;fillColor=none;top=0;left=0;bottom=0;right=0;align=left;spacingLeft=6;overflow=hidden;whiteSpace=wrap;html=1;" parent="EbRBRvWTeYwodcwLKBip-207" vertex="1">
          <mxGeometry x="30" width="150" height="30" as="geometry">
            <mxRectangle width="150" height="30" as="alternateBounds" />
          </mxGeometry>
        </mxCell>
        <mxCell id="EbRBRvWTeYwodcwLKBip-210" value="" style="shape=tableRow;horizontal=0;startSize=0;swimlaneHead=0;swimlaneBody=0;fillColor=none;collapsible=0;dropTarget=0;points=[[0,0.5],[1,0.5]];portConstraint=eastwest;top=0;left=0;right=0;bottom=0;" parent="EbRBRvWTeYwodcwLKBip-158" vertex="1">
          <mxGeometry y="570" width="180" height="30" as="geometry" />
        </mxCell>
        <mxCell id="EbRBRvWTeYwodcwLKBip-211" value="" style="shape=partialRectangle;connectable=0;fillColor=none;top=0;left=0;bottom=0;right=0;editable=1;overflow=hidden;whiteSpace=wrap;html=1;" parent="EbRBRvWTeYwodcwLKBip-210" vertex="1">
          <mxGeometry width="30" height="30" as="geometry">
            <mxRectangle width="30" height="30" as="alternateBounds" />
          </mxGeometry>
        </mxCell>
        <mxCell id="EbRBRvWTeYwodcwLKBip-212" value="Q_servico_Maus" style="shape=partialRectangle;connectable=0;fillColor=none;top=0;left=0;bottom=0;right=0;align=left;spacingLeft=6;overflow=hidden;whiteSpace=wrap;html=1;" parent="EbRBRvWTeYwodcwLKBip-210" vertex="1">
          <mxGeometry x="30" width="150" height="30" as="geometry">
            <mxRectangle width="150" height="30" as="alternateBounds" />
          </mxGeometry>
        </mxCell>
        <mxCell id="EbRBRvWTeYwodcwLKBip-213" value="" style="shape=tableRow;horizontal=0;startSize=0;swimlaneHead=0;swimlaneBody=0;fillColor=none;collapsible=0;dropTarget=0;points=[[0,0.5],[1,0.5]];portConstraint=eastwest;top=0;left=0;right=0;bottom=0;" parent="EbRBRvWTeYwodcwLKBip-158" vertex="1">
          <mxGeometry y="600" width="180" height="30" as="geometry" />
        </mxCell>
        <mxCell id="EbRBRvWTeYwodcwLKBip-214" value="" style="shape=partialRectangle;connectable=0;fillColor=none;top=0;left=0;bottom=0;right=0;editable=1;overflow=hidden;whiteSpace=wrap;html=1;" parent="EbRBRvWTeYwodcwLKBip-213" vertex="1">
          <mxGeometry width="30" height="30" as="geometry">
            <mxRectangle width="30" height="30" as="alternateBounds" />
          </mxGeometry>
        </mxCell>
        <mxCell id="EbRBRvWTeYwodcwLKBip-215" value="Q_recepcao" style="shape=partialRectangle;connectable=0;fillColor=none;top=0;left=0;bottom=0;right=0;align=left;spacingLeft=6;overflow=hidden;whiteSpace=wrap;html=1;" parent="EbRBRvWTeYwodcwLKBip-213" vertex="1">
          <mxGeometry x="30" width="150" height="30" as="geometry">
            <mxRectangle width="150" height="30" as="alternateBounds" />
          </mxGeometry>
        </mxCell>
        <mxCell id="EbRBRvWTeYwodcwLKBip-216" value="" style="shape=tableRow;horizontal=0;startSize=0;swimlaneHead=0;swimlaneBody=0;fillColor=none;collapsible=0;dropTarget=0;points=[[0,0.5],[1,0.5]];portConstraint=eastwest;top=0;left=0;right=0;bottom=0;" parent="EbRBRvWTeYwodcwLKBip-158" vertex="1">
          <mxGeometry y="630" width="180" height="30" as="geometry" />
        </mxCell>
        <mxCell id="EbRBRvWTeYwodcwLKBip-217" value="" style="shape=partialRectangle;connectable=0;fillColor=none;top=0;left=0;bottom=0;right=0;editable=1;overflow=hidden;whiteSpace=wrap;html=1;" parent="EbRBRvWTeYwodcwLKBip-216" vertex="1">
          <mxGeometry width="30" height="30" as="geometry">
            <mxRectangle width="30" height="30" as="alternateBounds" />
          </mxGeometry>
        </mxCell>
        <mxCell id="EbRBRvWTeYwodcwLKBip-218" value="Q_recepcao_bons" style="shape=partialRectangle;connectable=0;fillColor=none;top=0;left=0;bottom=0;right=0;align=left;spacingLeft=6;overflow=hidden;whiteSpace=wrap;html=1;" parent="EbRBRvWTeYwodcwLKBip-216" vertex="1">
          <mxGeometry x="30" width="150" height="30" as="geometry">
            <mxRectangle width="150" height="30" as="alternateBounds" />
          </mxGeometry>
        </mxCell>
        <mxCell id="EbRBRvWTeYwodcwLKBip-219" value="" style="shape=tableRow;horizontal=0;startSize=0;swimlaneHead=0;swimlaneBody=0;fillColor=none;collapsible=0;dropTarget=0;points=[[0,0.5],[1,0.5]];portConstraint=eastwest;top=0;left=0;right=0;bottom=0;" parent="EbRBRvWTeYwodcwLKBip-158" vertex="1">
          <mxGeometry y="660" width="180" height="30" as="geometry" />
        </mxCell>
        <mxCell id="EbRBRvWTeYwodcwLKBip-220" value="" style="shape=partialRectangle;connectable=0;fillColor=none;top=0;left=0;bottom=0;right=0;editable=1;overflow=hidden;whiteSpace=wrap;html=1;" parent="EbRBRvWTeYwodcwLKBip-219" vertex="1">
          <mxGeometry width="30" height="30" as="geometry">
            <mxRectangle width="30" height="30" as="alternateBounds" />
          </mxGeometry>
        </mxCell>
        <mxCell id="EbRBRvWTeYwodcwLKBip-221" value="Q_recepcao_Mn" style="shape=partialRectangle;connectable=0;fillColor=none;top=0;left=0;bottom=0;right=0;align=left;spacingLeft=6;overflow=hidden;whiteSpace=wrap;html=1;" parent="EbRBRvWTeYwodcwLKBip-219" vertex="1">
          <mxGeometry x="30" width="150" height="30" as="geometry">
            <mxRectangle width="150" height="30" as="alternateBounds" />
          </mxGeometry>
        </mxCell>
        <mxCell id="EbRBRvWTeYwodcwLKBip-222" value="" style="shape=tableRow;horizontal=0;startSize=0;swimlaneHead=0;swimlaneBody=0;fillColor=none;collapsible=0;dropTarget=0;points=[[0,0.5],[1,0.5]];portConstraint=eastwest;top=0;left=0;right=0;bottom=0;" parent="EbRBRvWTeYwodcwLKBip-158" vertex="1">
          <mxGeometry y="690" width="180" height="30" as="geometry" />
        </mxCell>
        <mxCell id="EbRBRvWTeYwodcwLKBip-223" value="" style="shape=partialRectangle;connectable=0;fillColor=none;top=0;left=0;bottom=0;right=0;editable=1;overflow=hidden;whiteSpace=wrap;html=1;" parent="EbRBRvWTeYwodcwLKBip-222" vertex="1">
          <mxGeometry width="30" height="30" as="geometry">
            <mxRectangle width="30" height="30" as="alternateBounds" />
          </mxGeometry>
        </mxCell>
        <mxCell id="EbRBRvWTeYwodcwLKBip-224" value="Q_recepcao_Maus" style="shape=partialRectangle;connectable=0;fillColor=none;top=0;left=0;bottom=0;right=0;align=left;spacingLeft=6;overflow=hidden;whiteSpace=wrap;html=1;" parent="EbRBRvWTeYwodcwLKBip-222" vertex="1">
          <mxGeometry x="30" width="150" height="30" as="geometry">
            <mxRectangle width="150" height="30" as="alternateBounds" />
          </mxGeometry>
        </mxCell>
        <mxCell id="EbRBRvWTeYwodcwLKBip-225" style="edgeStyle=orthogonalEdgeStyle;rounded=0;orthogonalLoop=1;jettySize=auto;html=1;exitX=1;exitY=0.5;exitDx=0;exitDy=0;entryX=0;entryY=0.5;entryDx=0;entryDy=0;" parent="1" source="EbRBRvWTeYwodcwLKBip-159" target="EbRBRvWTeYwodcwLKBip-25" edge="1">
          <mxGeometry relative="1" as="geometry" />
        </mxCell>
        <mxCell id="EbRBRvWTeYwodcwLKBip-226" value="info_jogador" style="shape=table;startSize=30;container=1;collapsible=1;childLayout=tableLayout;fixedRows=1;rowLines=0;fontStyle=1;align=center;resizeLast=1;html=1;" parent="1" vertex="1">
          <mxGeometry x="-60" y="660" width="180" height="870" as="geometry" />
        </mxCell>
        <mxCell id="EbRBRvWTeYwodcwLKBip-227" value="" style="shape=tableRow;horizontal=0;startSize=0;swimlaneHead=0;swimlaneBody=0;fillColor=none;collapsible=0;dropTarget=0;points=[[0,0.5],[1,0.5]];portConstraint=eastwest;top=0;left=0;right=0;bottom=1;" parent="EbRBRvWTeYwodcwLKBip-226" vertex="1">
          <mxGeometry y="30" width="180" height="30" as="geometry" />
        </mxCell>
        <mxCell id="EbRBRvWTeYwodcwLKBip-228" value="ID" style="shape=partialRectangle;connectable=0;fillColor=none;top=0;left=0;bottom=0;right=0;fontStyle=1;overflow=hidden;whiteSpace=wrap;html=1;" parent="EbRBRvWTeYwodcwLKBip-227" vertex="1">
          <mxGeometry width="30" height="30" as="geometry">
            <mxRectangle width="30" height="30" as="alternateBounds" />
          </mxGeometry>
        </mxCell>
        <mxCell id="EbRBRvWTeYwodcwLKBip-229" value="id_jogador" style="shape=partialRectangle;connectable=0;fillColor=none;top=0;left=0;bottom=0;right=0;align=left;spacingLeft=6;fontStyle=5;overflow=hidden;whiteSpace=wrap;html=1;" parent="EbRBRvWTeYwodcwLKBip-227" vertex="1">
          <mxGeometry x="30" width="150" height="30" as="geometry">
            <mxRectangle width="150" height="30" as="alternateBounds" />
          </mxGeometry>
        </mxCell>
        <mxCell id="EbRBRvWTeYwodcwLKBip-230" value="" style="shape=tableRow;horizontal=0;startSize=0;swimlaneHead=0;swimlaneBody=0;fillColor=none;collapsible=0;dropTarget=0;points=[[0,0.5],[1,0.5]];portConstraint=eastwest;top=0;left=0;right=0;bottom=0;" parent="EbRBRvWTeYwodcwLKBip-226" vertex="1">
          <mxGeometry y="60" width="180" height="30" as="geometry" />
        </mxCell>
        <mxCell id="EbRBRvWTeYwodcwLKBip-231" value="" style="shape=partialRectangle;connectable=0;fillColor=none;top=0;left=0;bottom=0;right=0;editable=1;overflow=hidden;whiteSpace=wrap;html=1;" parent="EbRBRvWTeYwodcwLKBip-230" vertex="1">
          <mxGeometry width="30" height="30" as="geometry">
            <mxRectangle width="30" height="30" as="alternateBounds" />
          </mxGeometry>
        </mxCell>
        <mxCell id="EbRBRvWTeYwodcwLKBip-232" value="nome" style="shape=partialRectangle;connectable=0;fillColor=none;top=0;left=0;bottom=0;right=0;align=left;spacingLeft=6;overflow=hidden;whiteSpace=wrap;html=1;" parent="EbRBRvWTeYwodcwLKBip-230" vertex="1">
          <mxGeometry x="30" width="150" height="30" as="geometry">
            <mxRectangle width="150" height="30" as="alternateBounds" />
          </mxGeometry>
        </mxCell>
        <mxCell id="EbRBRvWTeYwodcwLKBip-233" value="" style="shape=tableRow;horizontal=0;startSize=0;swimlaneHead=0;swimlaneBody=0;fillColor=none;collapsible=0;dropTarget=0;points=[[0,0.5],[1,0.5]];portConstraint=eastwest;top=0;left=0;right=0;bottom=0;" parent="EbRBRvWTeYwodcwLKBip-226" vertex="1">
          <mxGeometry y="90" width="180" height="30" as="geometry" />
        </mxCell>
        <mxCell id="EbRBRvWTeYwodcwLKBip-234" value="T/F" style="shape=partialRectangle;connectable=0;fillColor=none;top=0;left=0;bottom=0;right=0;editable=1;overflow=hidden;whiteSpace=wrap;html=1;" parent="EbRBRvWTeYwodcwLKBip-233" vertex="1">
          <mxGeometry width="30" height="30" as="geometry">
            <mxRectangle width="30" height="30" as="alternateBounds" />
          </mxGeometry>
        </mxCell>
        <mxCell id="EbRBRvWTeYwodcwLKBip-235" value="libero" style="shape=partialRectangle;connectable=0;fillColor=none;top=0;left=0;bottom=0;right=0;align=left;spacingLeft=6;overflow=hidden;whiteSpace=wrap;html=1;" parent="EbRBRvWTeYwodcwLKBip-233" vertex="1">
          <mxGeometry x="30" width="150" height="30" as="geometry">
            <mxRectangle width="150" height="30" as="alternateBounds" />
          </mxGeometry>
        </mxCell>
        <mxCell id="EbRBRvWTeYwodcwLKBip-236" value="" style="shape=tableRow;horizontal=0;startSize=0;swimlaneHead=0;swimlaneBody=0;fillColor=none;collapsible=0;dropTarget=0;points=[[0,0.5],[1,0.5]];portConstraint=eastwest;top=0;left=0;right=0;bottom=0;" parent="EbRBRvWTeYwodcwLKBip-226" vertex="1">
          <mxGeometry y="120" width="180" height="30" as="geometry" />
        </mxCell>
        <mxCell id="EbRBRvWTeYwodcwLKBip-237" value="" style="shape=partialRectangle;connectable=0;fillColor=none;top=0;left=0;bottom=0;right=0;editable=1;overflow=hidden;whiteSpace=wrap;html=1;" parent="EbRBRvWTeYwodcwLKBip-236" vertex="1">
          <mxGeometry width="30" height="30" as="geometry">
            <mxRectangle width="30" height="30" as="alternateBounds" />
          </mxGeometry>
        </mxCell>
        <mxCell id="EbRBRvWTeYwodcwLKBip-238" value="jogos_jogados" style="shape=partialRectangle;connectable=0;fillColor=none;top=0;left=0;bottom=0;right=0;align=left;spacingLeft=6;overflow=hidden;whiteSpace=wrap;html=1;" parent="EbRBRvWTeYwodcwLKBip-236" vertex="1">
          <mxGeometry x="30" width="150" height="30" as="geometry">
            <mxRectangle width="150" height="30" as="alternateBounds" />
          </mxGeometry>
        </mxCell>
        <mxCell id="EbRBRvWTeYwodcwLKBip-239" value="" style="shape=tableRow;horizontal=0;startSize=0;swimlaneHead=0;swimlaneBody=0;fillColor=none;collapsible=0;dropTarget=0;points=[[0,0.5],[1,0.5]];portConstraint=eastwest;top=0;left=0;right=0;bottom=0;" parent="EbRBRvWTeYwodcwLKBip-226" vertex="1">
          <mxGeometry y="150" width="180" height="30" as="geometry" />
        </mxCell>
        <mxCell id="EbRBRvWTeYwodcwLKBip-240" value="" style="shape=partialRectangle;connectable=0;fillColor=none;top=0;left=0;bottom=0;right=0;editable=1;overflow=hidden;whiteSpace=wrap;html=1;" parent="EbRBRvWTeYwodcwLKBip-239" vertex="1">
          <mxGeometry width="30" height="30" as="geometry">
            <mxRectangle width="30" height="30" as="alternateBounds" />
          </mxGeometry>
        </mxCell>
        <mxCell id="EbRBRvWTeYwodcwLKBip-241" value="melhor_estatistica" style="shape=partialRectangle;connectable=0;fillColor=none;top=0;left=0;bottom=0;right=0;align=left;spacingLeft=6;overflow=hidden;whiteSpace=wrap;html=1;" parent="EbRBRvWTeYwodcwLKBip-239" vertex="1">
          <mxGeometry x="30" width="150" height="30" as="geometry">
            <mxRectangle width="150" height="30" as="alternateBounds" />
          </mxGeometry>
        </mxCell>
        <mxCell id="EbRBRvWTeYwodcwLKBip-327" value="" style="shape=tableRow;horizontal=0;startSize=0;swimlaneHead=0;swimlaneBody=0;fillColor=none;collapsible=0;dropTarget=0;points=[[0,0.5],[1,0.5]];portConstraint=eastwest;top=0;left=0;right=0;bottom=0;" parent="EbRBRvWTeYwodcwLKBip-226" vertex="1">
          <mxGeometry y="180" width="180" height="30" as="geometry" />
        </mxCell>
        <mxCell id="EbRBRvWTeYwodcwLKBip-328" value="" style="shape=partialRectangle;connectable=0;fillColor=none;top=0;left=0;bottom=0;right=0;editable=1;overflow=hidden;whiteSpace=wrap;html=1;" parent="EbRBRvWTeYwodcwLKBip-327" vertex="1">
          <mxGeometry width="30" height="30" as="geometry">
            <mxRectangle width="30" height="30" as="alternateBounds" />
          </mxGeometry>
        </mxCell>
        <mxCell id="EbRBRvWTeYwodcwLKBip-329" value="pior_estatistica" style="shape=partialRectangle;connectable=0;fillColor=none;top=0;left=0;bottom=0;right=0;align=left;spacingLeft=6;overflow=hidden;whiteSpace=wrap;html=1;" parent="EbRBRvWTeYwodcwLKBip-327" vertex="1">
          <mxGeometry x="30" width="150" height="30" as="geometry">
            <mxRectangle width="150" height="30" as="alternateBounds" />
          </mxGeometry>
        </mxCell>
        <mxCell id="EbRBRvWTeYwodcwLKBip-242" value="" style="shape=tableRow;horizontal=0;startSize=0;swimlaneHead=0;swimlaneBody=0;fillColor=none;collapsible=0;dropTarget=0;points=[[0,0.5],[1,0.5]];portConstraint=eastwest;top=0;left=0;right=0;bottom=0;" parent="EbRBRvWTeYwodcwLKBip-226" vertex="1">
          <mxGeometry y="210" width="180" height="30" as="geometry" />
        </mxCell>
        <mxCell id="EbRBRvWTeYwodcwLKBip-243" value="" style="shape=partialRectangle;connectable=0;fillColor=none;top=0;left=0;bottom=0;right=0;editable=1;overflow=hidden;whiteSpace=wrap;html=1;" parent="EbRBRvWTeYwodcwLKBip-242" vertex="1">
          <mxGeometry width="30" height="30" as="geometry">
            <mxRectangle width="30" height="30" as="alternateBounds" />
          </mxGeometry>
        </mxCell>
        <mxCell id="EbRBRvWTeYwodcwLKBip-244" value="pior_estatistica" style="shape=partialRectangle;connectable=0;fillColor=none;top=0;left=0;bottom=0;right=0;align=left;spacingLeft=6;overflow=hidden;whiteSpace=wrap;html=1;" parent="EbRBRvWTeYwodcwLKBip-242" vertex="1">
          <mxGeometry x="30" width="150" height="30" as="geometry">
            <mxRectangle width="150" height="30" as="alternateBounds" />
          </mxGeometry>
        </mxCell>
        <mxCell id="EbRBRvWTeYwodcwLKBip-245" value="" style="shape=tableRow;horizontal=0;startSize=0;swimlaneHead=0;swimlaneBody=0;fillColor=none;collapsible=0;dropTarget=0;points=[[0,0.5],[1,0.5]];portConstraint=eastwest;top=0;left=0;right=0;bottom=0;" parent="EbRBRvWTeYwodcwLKBip-226" vertex="1">
          <mxGeometry y="240" width="180" height="30" as="geometry" />
        </mxCell>
        <mxCell id="EbRBRvWTeYwodcwLKBip-246" value="" style="shape=partialRectangle;connectable=0;fillColor=none;top=0;left=0;bottom=0;right=0;editable=1;overflow=hidden;whiteSpace=wrap;html=1;" parent="EbRBRvWTeYwodcwLKBip-245" vertex="1">
          <mxGeometry width="30" height="30" as="geometry">
            <mxRectangle width="30" height="30" as="alternateBounds" />
          </mxGeometry>
        </mxCell>
        <mxCell id="EbRBRvWTeYwodcwLKBip-247" value="Q_passes" style="shape=partialRectangle;connectable=0;fillColor=none;top=0;left=0;bottom=0;right=0;align=left;spacingLeft=6;overflow=hidden;whiteSpace=wrap;html=1;" parent="EbRBRvWTeYwodcwLKBip-245" vertex="1">
          <mxGeometry x="30" width="150" height="30" as="geometry">
            <mxRectangle width="150" height="30" as="alternateBounds" />
          </mxGeometry>
        </mxCell>
        <mxCell id="EbRBRvWTeYwodcwLKBip-248" value="" style="shape=tableRow;horizontal=0;startSize=0;swimlaneHead=0;swimlaneBody=0;fillColor=none;collapsible=0;dropTarget=0;points=[[0,0.5],[1,0.5]];portConstraint=eastwest;top=0;left=0;right=0;bottom=0;" parent="EbRBRvWTeYwodcwLKBip-226" vertex="1">
          <mxGeometry y="270" width="180" height="30" as="geometry" />
        </mxCell>
        <mxCell id="EbRBRvWTeYwodcwLKBip-249" value="" style="shape=partialRectangle;connectable=0;fillColor=none;top=0;left=0;bottom=0;right=0;editable=1;overflow=hidden;whiteSpace=wrap;html=1;" parent="EbRBRvWTeYwodcwLKBip-248" vertex="1">
          <mxGeometry width="30" height="30" as="geometry">
            <mxRectangle width="30" height="30" as="alternateBounds" />
          </mxGeometry>
        </mxCell>
        <mxCell id="EbRBRvWTeYwodcwLKBip-250" value="Q_passes_Bons" style="shape=partialRectangle;connectable=0;fillColor=none;top=0;left=0;bottom=0;right=0;align=left;spacingLeft=6;overflow=hidden;whiteSpace=wrap;html=1;" parent="EbRBRvWTeYwodcwLKBip-248" vertex="1">
          <mxGeometry x="30" width="150" height="30" as="geometry">
            <mxRectangle width="150" height="30" as="alternateBounds" />
          </mxGeometry>
        </mxCell>
        <mxCell id="EbRBRvWTeYwodcwLKBip-251" value="" style="shape=tableRow;horizontal=0;startSize=0;swimlaneHead=0;swimlaneBody=0;fillColor=none;collapsible=0;dropTarget=0;points=[[0,0.5],[1,0.5]];portConstraint=eastwest;top=0;left=0;right=0;bottom=0;" parent="EbRBRvWTeYwodcwLKBip-226" vertex="1">
          <mxGeometry y="300" width="180" height="30" as="geometry" />
        </mxCell>
        <mxCell id="EbRBRvWTeYwodcwLKBip-252" value="" style="shape=partialRectangle;connectable=0;fillColor=none;top=0;left=0;bottom=0;right=0;editable=1;overflow=hidden;whiteSpace=wrap;html=1;" parent="EbRBRvWTeYwodcwLKBip-251" vertex="1">
          <mxGeometry width="30" height="30" as="geometry">
            <mxRectangle width="30" height="30" as="alternateBounds" />
          </mxGeometry>
        </mxCell>
        <mxCell id="EbRBRvWTeYwodcwLKBip-253" value="Q_passes_Mn" style="shape=partialRectangle;connectable=0;fillColor=none;top=0;left=0;bottom=0;right=0;align=left;spacingLeft=6;overflow=hidden;whiteSpace=wrap;html=1;" parent="EbRBRvWTeYwodcwLKBip-251" vertex="1">
          <mxGeometry x="30" width="150" height="30" as="geometry">
            <mxRectangle width="150" height="30" as="alternateBounds" />
          </mxGeometry>
        </mxCell>
        <mxCell id="EbRBRvWTeYwodcwLKBip-254" value="" style="shape=tableRow;horizontal=0;startSize=0;swimlaneHead=0;swimlaneBody=0;fillColor=none;collapsible=0;dropTarget=0;points=[[0,0.5],[1,0.5]];portConstraint=eastwest;top=0;left=0;right=0;bottom=0;" parent="EbRBRvWTeYwodcwLKBip-226" vertex="1">
          <mxGeometry y="330" width="180" height="30" as="geometry" />
        </mxCell>
        <mxCell id="EbRBRvWTeYwodcwLKBip-255" value="" style="shape=partialRectangle;connectable=0;fillColor=none;top=0;left=0;bottom=0;right=0;editable=1;overflow=hidden;whiteSpace=wrap;html=1;" parent="EbRBRvWTeYwodcwLKBip-254" vertex="1">
          <mxGeometry width="30" height="30" as="geometry">
            <mxRectangle width="30" height="30" as="alternateBounds" />
          </mxGeometry>
        </mxCell>
        <mxCell id="EbRBRvWTeYwodcwLKBip-256" value="Q_passes_Maus" style="shape=partialRectangle;connectable=0;fillColor=none;top=0;left=0;bottom=0;right=0;align=left;spacingLeft=6;overflow=hidden;whiteSpace=wrap;html=1;" parent="EbRBRvWTeYwodcwLKBip-254" vertex="1">
          <mxGeometry x="30" width="150" height="30" as="geometry">
            <mxRectangle width="150" height="30" as="alternateBounds" />
          </mxGeometry>
        </mxCell>
        <mxCell id="EbRBRvWTeYwodcwLKBip-257" value="" style="shape=tableRow;horizontal=0;startSize=0;swimlaneHead=0;swimlaneBody=0;fillColor=none;collapsible=0;dropTarget=0;points=[[0,0.5],[1,0.5]];portConstraint=eastwest;top=0;left=0;right=0;bottom=0;" parent="EbRBRvWTeYwodcwLKBip-226" vertex="1">
          <mxGeometry y="360" width="180" height="30" as="geometry" />
        </mxCell>
        <mxCell id="EbRBRvWTeYwodcwLKBip-258" value="" style="shape=partialRectangle;connectable=0;fillColor=none;top=0;left=0;bottom=0;right=0;editable=1;overflow=hidden;whiteSpace=wrap;html=1;" parent="EbRBRvWTeYwodcwLKBip-257" vertex="1">
          <mxGeometry width="30" height="30" as="geometry">
            <mxRectangle width="30" height="30" as="alternateBounds" />
          </mxGeometry>
        </mxCell>
        <mxCell id="EbRBRvWTeYwodcwLKBip-259" value="Q_ataques" style="shape=partialRectangle;connectable=0;fillColor=none;top=0;left=0;bottom=0;right=0;align=left;spacingLeft=6;overflow=hidden;whiteSpace=wrap;html=1;" parent="EbRBRvWTeYwodcwLKBip-257" vertex="1">
          <mxGeometry x="30" width="150" height="30" as="geometry">
            <mxRectangle width="150" height="30" as="alternateBounds" />
          </mxGeometry>
        </mxCell>
        <mxCell id="EbRBRvWTeYwodcwLKBip-260" value="" style="shape=tableRow;horizontal=0;startSize=0;swimlaneHead=0;swimlaneBody=0;fillColor=none;collapsible=0;dropTarget=0;points=[[0,0.5],[1,0.5]];portConstraint=eastwest;top=0;left=0;right=0;bottom=0;" parent="EbRBRvWTeYwodcwLKBip-226" vertex="1">
          <mxGeometry y="390" width="180" height="30" as="geometry" />
        </mxCell>
        <mxCell id="EbRBRvWTeYwodcwLKBip-261" value="" style="shape=partialRectangle;connectable=0;fillColor=none;top=0;left=0;bottom=0;right=0;editable=1;overflow=hidden;whiteSpace=wrap;html=1;" parent="EbRBRvWTeYwodcwLKBip-260" vertex="1">
          <mxGeometry width="30" height="30" as="geometry">
            <mxRectangle width="30" height="30" as="alternateBounds" />
          </mxGeometry>
        </mxCell>
        <mxCell id="EbRBRvWTeYwodcwLKBip-262" value="Q_ataques_Bons" style="shape=partialRectangle;connectable=0;fillColor=none;top=0;left=0;bottom=0;right=0;align=left;spacingLeft=6;overflow=hidden;whiteSpace=wrap;html=1;" parent="EbRBRvWTeYwodcwLKBip-260" vertex="1">
          <mxGeometry x="30" width="150" height="30" as="geometry">
            <mxRectangle width="150" height="30" as="alternateBounds" />
          </mxGeometry>
        </mxCell>
        <mxCell id="EbRBRvWTeYwodcwLKBip-263" value="" style="shape=tableRow;horizontal=0;startSize=0;swimlaneHead=0;swimlaneBody=0;fillColor=none;collapsible=0;dropTarget=0;points=[[0,0.5],[1,0.5]];portConstraint=eastwest;top=0;left=0;right=0;bottom=0;" parent="EbRBRvWTeYwodcwLKBip-226" vertex="1">
          <mxGeometry y="420" width="180" height="30" as="geometry" />
        </mxCell>
        <mxCell id="EbRBRvWTeYwodcwLKBip-264" value="" style="shape=partialRectangle;connectable=0;fillColor=none;top=0;left=0;bottom=0;right=0;editable=1;overflow=hidden;whiteSpace=wrap;html=1;" parent="EbRBRvWTeYwodcwLKBip-263" vertex="1">
          <mxGeometry width="30" height="30" as="geometry">
            <mxRectangle width="30" height="30" as="alternateBounds" />
          </mxGeometry>
        </mxCell>
        <mxCell id="EbRBRvWTeYwodcwLKBip-265" value="Q_ataques_Mn" style="shape=partialRectangle;connectable=0;fillColor=none;top=0;left=0;bottom=0;right=0;align=left;spacingLeft=6;overflow=hidden;whiteSpace=wrap;html=1;" parent="EbRBRvWTeYwodcwLKBip-263" vertex="1">
          <mxGeometry x="30" width="150" height="30" as="geometry">
            <mxRectangle width="150" height="30" as="alternateBounds" />
          </mxGeometry>
        </mxCell>
        <mxCell id="EbRBRvWTeYwodcwLKBip-266" value="" style="shape=tableRow;horizontal=0;startSize=0;swimlaneHead=0;swimlaneBody=0;fillColor=none;collapsible=0;dropTarget=0;points=[[0,0.5],[1,0.5]];portConstraint=eastwest;top=0;left=0;right=0;bottom=0;" parent="EbRBRvWTeYwodcwLKBip-226" vertex="1">
          <mxGeometry y="450" width="180" height="30" as="geometry" />
        </mxCell>
        <mxCell id="EbRBRvWTeYwodcwLKBip-267" value="" style="shape=partialRectangle;connectable=0;fillColor=none;top=0;left=0;bottom=0;right=0;editable=1;overflow=hidden;whiteSpace=wrap;html=1;" parent="EbRBRvWTeYwodcwLKBip-266" vertex="1">
          <mxGeometry width="30" height="30" as="geometry">
            <mxRectangle width="30" height="30" as="alternateBounds" />
          </mxGeometry>
        </mxCell>
        <mxCell id="EbRBRvWTeYwodcwLKBip-268" value="Q_ataques_Maus" style="shape=partialRectangle;connectable=0;fillColor=none;top=0;left=0;bottom=0;right=0;align=left;spacingLeft=6;overflow=hidden;whiteSpace=wrap;html=1;" parent="EbRBRvWTeYwodcwLKBip-266" vertex="1">
          <mxGeometry x="30" width="150" height="30" as="geometry">
            <mxRectangle width="150" height="30" as="alternateBounds" />
          </mxGeometry>
        </mxCell>
        <mxCell id="EbRBRvWTeYwodcwLKBip-269" value="" style="shape=tableRow;horizontal=0;startSize=0;swimlaneHead=0;swimlaneBody=0;fillColor=none;collapsible=0;dropTarget=0;points=[[0,0.5],[1,0.5]];portConstraint=eastwest;top=0;left=0;right=0;bottom=0;" parent="EbRBRvWTeYwodcwLKBip-226" vertex="1">
          <mxGeometry y="480" width="180" height="30" as="geometry" />
        </mxCell>
        <mxCell id="EbRBRvWTeYwodcwLKBip-270" value="" style="shape=partialRectangle;connectable=0;fillColor=none;top=0;left=0;bottom=0;right=0;editable=1;overflow=hidden;whiteSpace=wrap;html=1;" parent="EbRBRvWTeYwodcwLKBip-269" vertex="1">
          <mxGeometry width="30" height="30" as="geometry">
            <mxRectangle width="30" height="30" as="alternateBounds" />
          </mxGeometry>
        </mxCell>
        <mxCell id="EbRBRvWTeYwodcwLKBip-271" value="Q_blocks" style="shape=partialRectangle;connectable=0;fillColor=none;top=0;left=0;bottom=0;right=0;align=left;spacingLeft=6;overflow=hidden;whiteSpace=wrap;html=1;" parent="EbRBRvWTeYwodcwLKBip-269" vertex="1">
          <mxGeometry x="30" width="150" height="30" as="geometry">
            <mxRectangle width="150" height="30" as="alternateBounds" />
          </mxGeometry>
        </mxCell>
        <mxCell id="EbRBRvWTeYwodcwLKBip-272" value="" style="shape=tableRow;horizontal=0;startSize=0;swimlaneHead=0;swimlaneBody=0;fillColor=none;collapsible=0;dropTarget=0;points=[[0,0.5],[1,0.5]];portConstraint=eastwest;top=0;left=0;right=0;bottom=0;" parent="EbRBRvWTeYwodcwLKBip-226" vertex="1">
          <mxGeometry y="510" width="180" height="30" as="geometry" />
        </mxCell>
        <mxCell id="EbRBRvWTeYwodcwLKBip-273" value="" style="shape=partialRectangle;connectable=0;fillColor=none;top=0;left=0;bottom=0;right=0;editable=1;overflow=hidden;whiteSpace=wrap;html=1;" parent="EbRBRvWTeYwodcwLKBip-272" vertex="1">
          <mxGeometry width="30" height="30" as="geometry">
            <mxRectangle width="30" height="30" as="alternateBounds" />
          </mxGeometry>
        </mxCell>
        <mxCell id="EbRBRvWTeYwodcwLKBip-274" value="Q_blocks_bons" style="shape=partialRectangle;connectable=0;fillColor=none;top=0;left=0;bottom=0;right=0;align=left;spacingLeft=6;overflow=hidden;whiteSpace=wrap;html=1;" parent="EbRBRvWTeYwodcwLKBip-272" vertex="1">
          <mxGeometry x="30" width="150" height="30" as="geometry">
            <mxRectangle width="150" height="30" as="alternateBounds" />
          </mxGeometry>
        </mxCell>
        <mxCell id="EbRBRvWTeYwodcwLKBip-275" value="" style="shape=tableRow;horizontal=0;startSize=0;swimlaneHead=0;swimlaneBody=0;fillColor=none;collapsible=0;dropTarget=0;points=[[0,0.5],[1,0.5]];portConstraint=eastwest;top=0;left=0;right=0;bottom=0;" parent="EbRBRvWTeYwodcwLKBip-226" vertex="1">
          <mxGeometry y="540" width="180" height="30" as="geometry" />
        </mxCell>
        <mxCell id="EbRBRvWTeYwodcwLKBip-276" value="" style="shape=partialRectangle;connectable=0;fillColor=none;top=0;left=0;bottom=0;right=0;editable=1;overflow=hidden;whiteSpace=wrap;html=1;" parent="EbRBRvWTeYwodcwLKBip-275" vertex="1">
          <mxGeometry width="30" height="30" as="geometry">
            <mxRectangle width="30" height="30" as="alternateBounds" />
          </mxGeometry>
        </mxCell>
        <mxCell id="EbRBRvWTeYwodcwLKBip-277" value="Q_blocks_Mn" style="shape=partialRectangle;connectable=0;fillColor=none;top=0;left=0;bottom=0;right=0;align=left;spacingLeft=6;overflow=hidden;whiteSpace=wrap;html=1;" parent="EbRBRvWTeYwodcwLKBip-275" vertex="1">
          <mxGeometry x="30" width="150" height="30" as="geometry">
            <mxRectangle width="150" height="30" as="alternateBounds" />
          </mxGeometry>
        </mxCell>
        <mxCell id="EbRBRvWTeYwodcwLKBip-278" value="" style="shape=tableRow;horizontal=0;startSize=0;swimlaneHead=0;swimlaneBody=0;fillColor=none;collapsible=0;dropTarget=0;points=[[0,0.5],[1,0.5]];portConstraint=eastwest;top=0;left=0;right=0;bottom=0;" parent="EbRBRvWTeYwodcwLKBip-226" vertex="1">
          <mxGeometry y="570" width="180" height="30" as="geometry" />
        </mxCell>
        <mxCell id="EbRBRvWTeYwodcwLKBip-279" value="" style="shape=partialRectangle;connectable=0;fillColor=none;top=0;left=0;bottom=0;right=0;editable=1;overflow=hidden;whiteSpace=wrap;html=1;" parent="EbRBRvWTeYwodcwLKBip-278" vertex="1">
          <mxGeometry width="30" height="30" as="geometry">
            <mxRectangle width="30" height="30" as="alternateBounds" />
          </mxGeometry>
        </mxCell>
        <mxCell id="EbRBRvWTeYwodcwLKBip-280" value="Q_blocks_Maus" style="shape=partialRectangle;connectable=0;fillColor=none;top=0;left=0;bottom=0;right=0;align=left;spacingLeft=6;overflow=hidden;whiteSpace=wrap;html=1;" parent="EbRBRvWTeYwodcwLKBip-278" vertex="1">
          <mxGeometry x="30" width="150" height="30" as="geometry">
            <mxRectangle width="150" height="30" as="alternateBounds" />
          </mxGeometry>
        </mxCell>
        <mxCell id="EbRBRvWTeYwodcwLKBip-281" value="" style="shape=tableRow;horizontal=0;startSize=0;swimlaneHead=0;swimlaneBody=0;fillColor=none;collapsible=0;dropTarget=0;points=[[0,0.5],[1,0.5]];portConstraint=eastwest;top=0;left=0;right=0;bottom=0;" parent="EbRBRvWTeYwodcwLKBip-226" vertex="1">
          <mxGeometry y="600" width="180" height="30" as="geometry" />
        </mxCell>
        <mxCell id="EbRBRvWTeYwodcwLKBip-282" value="" style="shape=partialRectangle;connectable=0;fillColor=none;top=0;left=0;bottom=0;right=0;editable=1;overflow=hidden;whiteSpace=wrap;html=1;" parent="EbRBRvWTeYwodcwLKBip-281" vertex="1">
          <mxGeometry width="30" height="30" as="geometry">
            <mxRectangle width="30" height="30" as="alternateBounds" />
          </mxGeometry>
        </mxCell>
        <mxCell id="EbRBRvWTeYwodcwLKBip-283" value="Q_servico" style="shape=partialRectangle;connectable=0;fillColor=none;top=0;left=0;bottom=0;right=0;align=left;spacingLeft=6;overflow=hidden;whiteSpace=wrap;html=1;" parent="EbRBRvWTeYwodcwLKBip-281" vertex="1">
          <mxGeometry x="30" width="150" height="30" as="geometry">
            <mxRectangle width="150" height="30" as="alternateBounds" />
          </mxGeometry>
        </mxCell>
        <mxCell id="EbRBRvWTeYwodcwLKBip-284" value="" style="shape=tableRow;horizontal=0;startSize=0;swimlaneHead=0;swimlaneBody=0;fillColor=none;collapsible=0;dropTarget=0;points=[[0,0.5],[1,0.5]];portConstraint=eastwest;top=0;left=0;right=0;bottom=0;" parent="EbRBRvWTeYwodcwLKBip-226" vertex="1">
          <mxGeometry y="630" width="180" height="30" as="geometry" />
        </mxCell>
        <mxCell id="EbRBRvWTeYwodcwLKBip-285" value="" style="shape=partialRectangle;connectable=0;fillColor=none;top=0;left=0;bottom=0;right=0;editable=1;overflow=hidden;whiteSpace=wrap;html=1;" parent="EbRBRvWTeYwodcwLKBip-284" vertex="1">
          <mxGeometry width="30" height="30" as="geometry">
            <mxRectangle width="30" height="30" as="alternateBounds" />
          </mxGeometry>
        </mxCell>
        <mxCell id="EbRBRvWTeYwodcwLKBip-286" value="Q_servico_As" style="shape=partialRectangle;connectable=0;fillColor=none;top=0;left=0;bottom=0;right=0;align=left;spacingLeft=6;overflow=hidden;whiteSpace=wrap;html=1;" parent="EbRBRvWTeYwodcwLKBip-284" vertex="1">
          <mxGeometry x="30" width="150" height="30" as="geometry">
            <mxRectangle width="150" height="30" as="alternateBounds" />
          </mxGeometry>
        </mxCell>
        <mxCell id="EbRBRvWTeYwodcwLKBip-287" value="" style="shape=tableRow;horizontal=0;startSize=0;swimlaneHead=0;swimlaneBody=0;fillColor=none;collapsible=0;dropTarget=0;points=[[0,0.5],[1,0.5]];portConstraint=eastwest;top=0;left=0;right=0;bottom=0;" parent="EbRBRvWTeYwodcwLKBip-226" vertex="1">
          <mxGeometry y="660" width="180" height="30" as="geometry" />
        </mxCell>
        <mxCell id="EbRBRvWTeYwodcwLKBip-288" value="" style="shape=partialRectangle;connectable=0;fillColor=none;top=0;left=0;bottom=0;right=0;editable=1;overflow=hidden;whiteSpace=wrap;html=1;" parent="EbRBRvWTeYwodcwLKBip-287" vertex="1">
          <mxGeometry width="30" height="30" as="geometry">
            <mxRectangle width="30" height="30" as="alternateBounds" />
          </mxGeometry>
        </mxCell>
        <mxCell id="EbRBRvWTeYwodcwLKBip-289" value="Q_servico_Bons" style="shape=partialRectangle;connectable=0;fillColor=none;top=0;left=0;bottom=0;right=0;align=left;spacingLeft=6;overflow=hidden;whiteSpace=wrap;html=1;" parent="EbRBRvWTeYwodcwLKBip-287" vertex="1">
          <mxGeometry x="30" width="150" height="30" as="geometry">
            <mxRectangle width="150" height="30" as="alternateBounds" />
          </mxGeometry>
        </mxCell>
        <mxCell id="EbRBRvWTeYwodcwLKBip-290" value="" style="shape=tableRow;horizontal=0;startSize=0;swimlaneHead=0;swimlaneBody=0;fillColor=none;collapsible=0;dropTarget=0;points=[[0,0.5],[1,0.5]];portConstraint=eastwest;top=0;left=0;right=0;bottom=0;" parent="EbRBRvWTeYwodcwLKBip-226" vertex="1">
          <mxGeometry y="690" width="180" height="30" as="geometry" />
        </mxCell>
        <mxCell id="EbRBRvWTeYwodcwLKBip-291" value="" style="shape=partialRectangle;connectable=0;fillColor=none;top=0;left=0;bottom=0;right=0;editable=1;overflow=hidden;whiteSpace=wrap;html=1;" parent="EbRBRvWTeYwodcwLKBip-290" vertex="1">
          <mxGeometry width="30" height="30" as="geometry">
            <mxRectangle width="30" height="30" as="alternateBounds" />
          </mxGeometry>
        </mxCell>
        <mxCell id="EbRBRvWTeYwodcwLKBip-292" value="Q_servico_Mn" style="shape=partialRectangle;connectable=0;fillColor=none;top=0;left=0;bottom=0;right=0;align=left;spacingLeft=6;overflow=hidden;whiteSpace=wrap;html=1;" parent="EbRBRvWTeYwodcwLKBip-290" vertex="1">
          <mxGeometry x="30" width="150" height="30" as="geometry">
            <mxRectangle width="150" height="30" as="alternateBounds" />
          </mxGeometry>
        </mxCell>
        <mxCell id="EbRBRvWTeYwodcwLKBip-293" value="" style="shape=tableRow;horizontal=0;startSize=0;swimlaneHead=0;swimlaneBody=0;fillColor=none;collapsible=0;dropTarget=0;points=[[0,0.5],[1,0.5]];portConstraint=eastwest;top=0;left=0;right=0;bottom=0;" parent="EbRBRvWTeYwodcwLKBip-226" vertex="1">
          <mxGeometry y="720" width="180" height="30" as="geometry" />
        </mxCell>
        <mxCell id="EbRBRvWTeYwodcwLKBip-294" value="" style="shape=partialRectangle;connectable=0;fillColor=none;top=0;left=0;bottom=0;right=0;editable=1;overflow=hidden;whiteSpace=wrap;html=1;" parent="EbRBRvWTeYwodcwLKBip-293" vertex="1">
          <mxGeometry width="30" height="30" as="geometry">
            <mxRectangle width="30" height="30" as="alternateBounds" />
          </mxGeometry>
        </mxCell>
        <mxCell id="EbRBRvWTeYwodcwLKBip-295" value="Q_servico_Maus" style="shape=partialRectangle;connectable=0;fillColor=none;top=0;left=0;bottom=0;right=0;align=left;spacingLeft=6;overflow=hidden;whiteSpace=wrap;html=1;" parent="EbRBRvWTeYwodcwLKBip-293" vertex="1">
          <mxGeometry x="30" width="150" height="30" as="geometry">
            <mxRectangle width="150" height="30" as="alternateBounds" />
          </mxGeometry>
        </mxCell>
        <mxCell id="EbRBRvWTeYwodcwLKBip-296" value="" style="shape=tableRow;horizontal=0;startSize=0;swimlaneHead=0;swimlaneBody=0;fillColor=none;collapsible=0;dropTarget=0;points=[[0,0.5],[1,0.5]];portConstraint=eastwest;top=0;left=0;right=0;bottom=0;" parent="EbRBRvWTeYwodcwLKBip-226" vertex="1">
          <mxGeometry y="750" width="180" height="30" as="geometry" />
        </mxCell>
        <mxCell id="EbRBRvWTeYwodcwLKBip-297" value="" style="shape=partialRectangle;connectable=0;fillColor=none;top=0;left=0;bottom=0;right=0;editable=1;overflow=hidden;whiteSpace=wrap;html=1;" parent="EbRBRvWTeYwodcwLKBip-296" vertex="1">
          <mxGeometry width="30" height="30" as="geometry">
            <mxRectangle width="30" height="30" as="alternateBounds" />
          </mxGeometry>
        </mxCell>
        <mxCell id="EbRBRvWTeYwodcwLKBip-298" value="Q_recepcao" style="shape=partialRectangle;connectable=0;fillColor=none;top=0;left=0;bottom=0;right=0;align=left;spacingLeft=6;overflow=hidden;whiteSpace=wrap;html=1;" parent="EbRBRvWTeYwodcwLKBip-296" vertex="1">
          <mxGeometry x="30" width="150" height="30" as="geometry">
            <mxRectangle width="150" height="30" as="alternateBounds" />
          </mxGeometry>
        </mxCell>
        <mxCell id="EbRBRvWTeYwodcwLKBip-299" value="" style="shape=tableRow;horizontal=0;startSize=0;swimlaneHead=0;swimlaneBody=0;fillColor=none;collapsible=0;dropTarget=0;points=[[0,0.5],[1,0.5]];portConstraint=eastwest;top=0;left=0;right=0;bottom=0;" parent="EbRBRvWTeYwodcwLKBip-226" vertex="1">
          <mxGeometry y="780" width="180" height="30" as="geometry" />
        </mxCell>
        <mxCell id="EbRBRvWTeYwodcwLKBip-300" value="" style="shape=partialRectangle;connectable=0;fillColor=none;top=0;left=0;bottom=0;right=0;editable=1;overflow=hidden;whiteSpace=wrap;html=1;" parent="EbRBRvWTeYwodcwLKBip-299" vertex="1">
          <mxGeometry width="30" height="30" as="geometry">
            <mxRectangle width="30" height="30" as="alternateBounds" />
          </mxGeometry>
        </mxCell>
        <mxCell id="EbRBRvWTeYwodcwLKBip-301" value="Q_recepcao_bons" style="shape=partialRectangle;connectable=0;fillColor=none;top=0;left=0;bottom=0;right=0;align=left;spacingLeft=6;overflow=hidden;whiteSpace=wrap;html=1;" parent="EbRBRvWTeYwodcwLKBip-299" vertex="1">
          <mxGeometry x="30" width="150" height="30" as="geometry">
            <mxRectangle width="150" height="30" as="alternateBounds" />
          </mxGeometry>
        </mxCell>
        <mxCell id="EbRBRvWTeYwodcwLKBip-302" value="" style="shape=tableRow;horizontal=0;startSize=0;swimlaneHead=0;swimlaneBody=0;fillColor=none;collapsible=0;dropTarget=0;points=[[0,0.5],[1,0.5]];portConstraint=eastwest;top=0;left=0;right=0;bottom=0;" parent="EbRBRvWTeYwodcwLKBip-226" vertex="1">
          <mxGeometry y="810" width="180" height="30" as="geometry" />
        </mxCell>
        <mxCell id="EbRBRvWTeYwodcwLKBip-303" value="" style="shape=partialRectangle;connectable=0;fillColor=none;top=0;left=0;bottom=0;right=0;editable=1;overflow=hidden;whiteSpace=wrap;html=1;" parent="EbRBRvWTeYwodcwLKBip-302" vertex="1">
          <mxGeometry width="30" height="30" as="geometry">
            <mxRectangle width="30" height="30" as="alternateBounds" />
          </mxGeometry>
        </mxCell>
        <mxCell id="EbRBRvWTeYwodcwLKBip-304" value="Q_recepcao_Mn" style="shape=partialRectangle;connectable=0;fillColor=none;top=0;left=0;bottom=0;right=0;align=left;spacingLeft=6;overflow=hidden;whiteSpace=wrap;html=1;" parent="EbRBRvWTeYwodcwLKBip-302" vertex="1">
          <mxGeometry x="30" width="150" height="30" as="geometry">
            <mxRectangle width="150" height="30" as="alternateBounds" />
          </mxGeometry>
        </mxCell>
        <mxCell id="EbRBRvWTeYwodcwLKBip-305" value="" style="shape=tableRow;horizontal=0;startSize=0;swimlaneHead=0;swimlaneBody=0;fillColor=none;collapsible=0;dropTarget=0;points=[[0,0.5],[1,0.5]];portConstraint=eastwest;top=0;left=0;right=0;bottom=0;" parent="EbRBRvWTeYwodcwLKBip-226" vertex="1">
          <mxGeometry y="840" width="180" height="30" as="geometry" />
        </mxCell>
        <mxCell id="EbRBRvWTeYwodcwLKBip-306" value="" style="shape=partialRectangle;connectable=0;fillColor=none;top=0;left=0;bottom=0;right=0;editable=1;overflow=hidden;whiteSpace=wrap;html=1;" parent="EbRBRvWTeYwodcwLKBip-305" vertex="1">
          <mxGeometry width="30" height="30" as="geometry">
            <mxRectangle width="30" height="30" as="alternateBounds" />
          </mxGeometry>
        </mxCell>
        <mxCell id="EbRBRvWTeYwodcwLKBip-307" value="Q_recepcao_Maus" style="shape=partialRectangle;connectable=0;fillColor=none;top=0;left=0;bottom=0;right=0;align=left;spacingLeft=6;overflow=hidden;whiteSpace=wrap;html=1;" parent="EbRBRvWTeYwodcwLKBip-305" vertex="1">
          <mxGeometry x="30" width="150" height="30" as="geometry">
            <mxRectangle width="150" height="30" as="alternateBounds" />
          </mxGeometry>
        </mxCell>
        <mxCell id="EbRBRvWTeYwodcwLKBip-308" style="edgeStyle=orthogonalEdgeStyle;rounded=0;orthogonalLoop=1;jettySize=auto;html=1;exitX=0;exitY=0.5;exitDx=0;exitDy=0;entryX=0;entryY=0.5;entryDx=0;entryDy=0;" parent="1" source="EbRBRvWTeYwodcwLKBip-227" target="EbRBRvWTeYwodcwLKBip-22" edge="1">
          <mxGeometry relative="1" as="geometry">
            <Array as="points">
              <mxPoint x="-100" y="705" />
              <mxPoint x="-100" y="605" />
              <mxPoint x="240" y="605" />
              <mxPoint x="240" y="75" />
            </Array>
          </mxGeometry>
        </mxCell>
        <mxCell id="EbRBRvWTeYwodcwLKBip-321" style="edgeStyle=orthogonalEdgeStyle;rounded=0;orthogonalLoop=1;jettySize=auto;html=1;exitX=0;exitY=0.5;exitDx=0;exitDy=0;entryX=0;entryY=0.5;entryDx=0;entryDy=0;" parent="1" source="EbRBRvWTeYwodcwLKBip-227" target="EbRBRvWTeYwodcwLKBip-162" edge="1">
          <mxGeometry relative="1" as="geometry">
            <Array as="points">
              <mxPoint x="-160" y="705" />
              <mxPoint x="-160" y="-135" />
            </Array>
          </mxGeometry>
        </mxCell>
        <mxCell id="EbRBRvWTeYwodcwLKBip-323" style="edgeStyle=orthogonalEdgeStyle;rounded=0;orthogonalLoop=1;jettySize=auto;html=1;exitX=0;exitY=0.5;exitDx=0;exitDy=0;entryX=0;entryY=0.5;entryDx=0;entryDy=0;" parent="1" source="EbRBRvWTeYwodcwLKBip-227" target="EbRBRvWTeYwodcwLKBip-309" edge="1">
          <mxGeometry relative="1" as="geometry">
            <Array as="points">
              <mxPoint x="-100" y="705" />
              <mxPoint x="-100" y="880" />
              <mxPoint x="-470" y="880" />
              <mxPoint x="-470" y="145" />
            </Array>
          </mxGeometry>
        </mxCell>
        <mxCell id="qMHP9Uw10RrY-gQze9GQ-1" value="so vai ter a estatistica da recepÃ§Ã£o" style="text;html=1;align=center;verticalAlign=middle;whiteSpace=wrap;rounded=0;fillColor=none;strokeColor=default;fontColor=#333333;gradientColor=none;" vertex="1" parent="1">
          <mxGeometry x="250" y="800" width="150" height="40" as="geometry" />
        </mxCell>
        <mxCell id="qMHP9Uw10RrY-gQze9GQ-2" style="edgeStyle=orthogonalEdgeStyle;rounded=0;orthogonalLoop=1;jettySize=auto;html=1;exitX=1;exitY=0.5;exitDx=0;exitDy=0;entryX=0.5;entryY=0;entryDx=0;entryDy=0;" edge="1" parent="1" source="EbRBRvWTeYwodcwLKBip-233" target="qMHP9Uw10RrY-gQze9GQ-1">
          <mxGeometry relative="1" as="geometry" />
        </mxCell>
      </root>
    </mxGraphModel>
  </diagram>
</mxfile>
